<?xml version="1.0" encoding="utf-8"?>
<!-- Generator: Adobe Illustrator 22.0.1, SVG Export Plug-In . SVG Version: 6.00 Build 0)  -->
<svg version="1.1" id="Layer_1" xmlns="http://www.w3.org/2000/svg" xmlns:xlink="http://www.w3.org/1999/xlink" x="0px" y="0px"
	 viewBox="0 0 81 81" style="enable-background:new 0 0 81 81;" xml:space="preserve">
<style type="text/css">
	.st0{fill:#64BBE1;}
	.st1{fill:#FFFFFF;}
</style>
<circle class="st0" cx="40.5" cy="40.5" r="40.5"/>
<g>
	<path class="st1" d="M40.5,57.5c-2.5,0-4.9,0-7.4,0c-0.5,0-0.8-0.3-0.9-0.9c-0.1-0.6,0.2-1.1,0.6-1.2c0.1,0,0.3,0,0.4,0
		c4.9,0,9.7,0,14.6,0c0.1,0,0.3,0,0.4,0c0.4,0.1,0.6,0.5,0.6,1c0,0.5-0.3,0.9-0.6,1c-0.1,0-0.3,0-0.4,0
		C45.4,57.5,42.9,57.5,40.5,57.5z"/>
	<path class="st1" d="M40.5,50.9c-2.5,0-4.9,0-7.4,0c-0.5,0-0.8-0.3-0.9-0.9c-0.1-0.6,0.2-1.1,0.6-1.2c0.1,0,0.3,0,0.4,0
		c4.9,0,9.7,0,14.6,0c0.1,0,0.3,0,0.4,0c0.4,0.1,0.6,0.5,0.6,1c0,0.5-0.3,0.9-0.6,1c-0.1,0-0.3,0-0.4,0
		C45.4,50.9,42.9,50.9,40.5,50.9z"/>
	<path class="st1" d="M40.5,44.2c-2.5,0-4.9,0-7.4,0c-0.5,0-0.8-0.3-0.9-0.9c-0.1-0.6,0.2-1.1,0.6-1.2c0.1,0,0.3,0,0.4,0
		c4.9,0,9.7,0,14.6,0c0.1,0,0.3,0,0.4,0c0.4,0.1,0.6,0.5,0.6,1c0,0.5-0.3,0.9-0.6,1c-0.1,0-0.3,0-0.4,0
		C45.4,44.2,42.9,44.2,40.5,44.2z"/>
</g>
<g>
	<path class="st1" d="M58.6,59.9c0-4.1,0-8,0-12c-1.6,0-3.1,0-4.8,0c0,0.6,0,8.4,0,9c0,1.3-0.2,2.6-0.9,3.8c-1.2,2.1-3.1,3-5.4,3.3
		C47.2,64,46.7,64,46.2,64c-4,0-8.1,0-12.1,0c-4.5,0-6.8-3.2-7-6.9c0-0.6,0-8.3,0-8.9c-1.6,0-3.2,0-4.8,0c0,0.2,0,0.4,0,0.6
		c0,2.2,0,4.3,0,6.5c0,0.3-0.1,0.5-0.4,0.7c-1.7,0.9-3.5,1.8-5.2,2.7c-0.2,0.1-0.4,0.3-0.4,0.6c-0.1,1.3-1,2.3-2.3,2.5
		c-1.2,0.2-2.5-0.4-3-1.5c-0.6-1.2-0.3-2.5,0.7-3.4c0.9-0.8,2.3-0.9,3.3-0.2c0.2,0.2,0.4,0.2,0.7,0.1c1.3-0.7,2.6-1.4,3.9-2.1
		c0.3-0.2,0.5-0.4,0.5-0.7c0-2.5,0-4.9,0-7.4c0-0.2,0-0.4,0-0.6c2.3,0,4.6,0,6.9,0c0-1.6,0-3.1,0-4.6c-0.2,0-0.3,0-0.5,0
		c-3.3,0-6.6,0-10,0c-0.3,0-0.5,0.1-0.7,0.4c-0.8,1.3-2.4,1.7-3.6,1.1c-1.3-0.7-1.9-2.3-1.3-3.6c0.6-1.3,2.2-2,3.5-1.4
		c0.6,0.2,1.1,0.7,1.5,1.3c0.1,0.1,0.3,0.3,0.4,0.3c3.5,0,7.1,0,10.7,0c0-1.4,0-2.8,0-4.2c-2.3,0-4.5,0-6.8,0c0-4,0-8,0-12
		c-1.4,0-2.7,0-4,0c-0.1,0-0.3,0.2-0.4,0.3c-0.7,0.9-1.7,1.3-2.8,1.1c-1.2-0.2-1.9-1-2.2-2.1c-0.3-1.1,0.1-2.1,1-2.8
		c1.3-1.1,3.4-0.6,4.2,1c0.2,0.3,0.3,0.4,0.7,0.4c1.7,0,3.3,0,5,0c0.2,0,0.4,0,0.6,0c0,4,0,8,0,12c1.6,0,3.2,0,4.8,0
		c0-0.6,0-8.4,0-9c0-1,0.1-2,0.5-3c0.9-2.3,2.7-3.4,5-3.9c0.4-0.1,0.9-0.1,1.4-0.2c4.2,0,8.4,0,12.5,0c1.4,0,2.8,0.2,4,0.9
		c2,1.3,3,3.2,3.2,5.5c0.1,0.8,0,8.8,0,9.6c1.6,0,3.2,0,4.8,0c0-0.2,0-0.4,0-0.6c0-2.3,0-4.5,0-6.8c0-0.4,0.1-0.6,0.4-0.7
		c1.7-0.9,3.4-1.8,5.2-2.7c0.2-0.1,0.4-0.2,0.4-0.5c0.1-1.5,1.3-2.6,2.9-2.6c1.5,0,2.6,1.3,2.7,2.8c0,1.5-1.2,2.7-2.6,2.8
		c-0.6,0-1.2-0.1-1.7-0.5c-0.2-0.2-0.4-0.2-0.7,0c-1.3,0.7-2.7,1.4-4,2.1c-0.3,0.2-0.4,0.3-0.4,0.7c0,2.6,0,5.1,0,7.7
		c0,0.2,0,0.4,0,0.6c-2.3,0-4.5,0-6.8,0c0,1.4,0,2.8,0,4.2c0.2,0,0.3,0,0.5,0c3.3,0,6.6,0,10,0c0.3,0,0.5-0.1,0.6-0.3
		c0.6-1.1,1.9-1.6,3.1-1.3c1.2,0.3,2.1,1.4,2.1,2.7c0,1.2-0.8,2.3-1.9,2.7C67,43.4,65.7,43,65,41.9c-0.2-0.3-0.4-0.4-0.8-0.4
		c-3.3,0-6.5,0-9.8,0c-0.2,0-0.4,0-0.6,0c0,1.4,0,2.8,0,4.3c2.3,0,4.5,0,6.8,0c0,4,0,8,0,12c0.2,0,0.3,0,0.5,0c0.8,0,1.6,0,2.4,0
		c0.8,0,1.4-0.1,1.9-0.7c1-1.2,2.9-1,4,0.2c1,1.2,0.8,3.1-0.4,4c-1.3,1-3.1,0.7-4-0.7c-0.3-0.6-0.7-0.7-1.3-0.7c-1.5,0-3,0-4.5,0
		C59.1,59.9,58.9,59.9,58.6,59.9z M51.8,40.6C51.8,40.6,51.8,40.6,51.8,40.6c0-3.2,0-13.5,0-16.7c-0.1-3-1.9-4.8-4.8-4.8
		c-4.3,0-8.6,0-12.9,0c-2.8,0-4.8,1.9-4.8,4.6c0,6.3,0,26.9,0,33.2c0,3.1,1.9,4.9,5,4.9c2.6,0,5.2,0,7.8,0c1.7,0,3.4,0,5,0
		c2.2-0.1,3.9-1.2,4.4-3.1c0.2-0.6,0.3-1.3,0.3-1.9C51.8,53.8,51.8,43.7,51.8,40.6z"/>
</g>
<g>
	<path class="st1" d="M37.4,35.2c-0.4-0.4-0.8-0.8-1.2-1.2c0.1-0.1,0.2-0.2,0.4-0.4c0.4,0.4,0.8,0.8,1.2,1.2
		c0.2-0.2,0.3-0.3,0.5-0.5c-0.7-0.7-1.4-1.4-2.1-2.1c0.1-0.1,0.2-0.2,0.4-0.3c0.7,0.7,1.4,1.4,2.1,2.1c0.2-0.2,0.4-0.3,0.5-0.5
		c-0.4-0.4-0.8-0.8-1.2-1.2c0.1-0.1,0.2-0.2,0.4-0.4c0.4,0.4,0.8,0.8,1.2,1.2c0.2-0.2,0.4-0.4,0.5-0.5c-0.7-0.7-1.4-1.4-2.1-2.1
		c0.1-0.1,0.2-0.2,0.3-0.4c0.7,0.7,1.4,1.4,2.1,2.1c0.2-0.2,0.3-0.3,0.5-0.5c-0.4-0.4-0.8-0.8-1.2-1.2c0.1-0.1,0.2-0.2,0.3-0.4
		c0.4,0.4,0.8,0.8,1.2,1.2c0.2-0.2,0.3-0.3,0.5-0.5c-0.7-0.7-1.4-1.4-2.1-2.1c0.1-0.1,0.2-0.2,0.4-0.4c0.7,0.7,1.4,1.4,2.1,2.1
		c0.2-0.2,0.3-0.3,0.5-0.5c-0.4-0.4-0.8-0.8-1.2-1.2c0.1-0.1,0.2-0.2,0.3-0.4c0.4,0.4,0.8,0.8,1.2,1.2c0.2-0.2,0.3-0.3,0.5-0.5
		c-0.7-0.7-1.4-1.4-2.1-2.1c0.1-0.1,0.2-0.2,0.3-0.4c0.7,0.7,1.4,1.4,2.1,2.1c0.2-0.2,0.3-0.3,0.5-0.5c-0.4-0.4-0.8-0.8-1.2-1.2
		c0.1-0.1,0.2-0.2,0.4-0.4c0.4,0.4,0.8,0.8,1.2,1.2c0.2-0.2,0.3-0.4,0.5-0.5c-0.7-0.7-1.4-1.4-2.1-2.1c0.1-0.1,0.2-0.2,0.3-0.3
		c0.7,0.7,1.4,1.4,2.1,2.1c0.2-0.2,0.4-0.3,0.5-0.5c-0.4-0.4-0.8-0.8-1.2-1.2c0.1-0.1,0.2-0.2,0.4-0.4c0.4,0.4,0.8,0.8,1.2,1.2
		c0.2-0.2,0.5-0.5,0.7-0.7c-1-1-1.9-1.9-2.9-2.9c-3.5,3.5-7,7-10.5,10.5c1,1,1.9,1.9,2.9,2.9C37,35.7,37.2,35.5,37.4,35.2z
		 M41.3,32.1c1.1,1.1,2.2,2.2,3.3,3.3c0.7-0.7,1.4-1.4,2.1-2.1c-1.1-1.1-2.2-2.2-3.3-3.3C42.7,30.7,42,31.4,41.3,32.1z M39.7,26.3
		c-0.8-0.8-1.7-1.7-2.5-2.5c-0.7,0.7-1.4,1.4-2.1,2.1c0.8,0.8,1.7,1.7,2.5,2.5C38.3,27.7,39,27,39.7,26.3z M34.7,25.5
		c0.7-0.7,1.4-1.4,2.1-2.1c0,0,0,0,0,0c-0.3-0.3-0.7-0.7-1-1c-0.4-0.3-0.8-0.5-1.3-0.4c-0.6,0.1-1,0.4-1.2,1
		c-0.2,0.5-0.1,1.1,0.3,1.5c0.3,0.3,0.5,0.5,0.8,0.8C34.6,25.3,34.6,25.4,34.7,25.5z M47.8,36.5c-0.3-1-0.5-1.9-0.8-2.8
		c-0.7,0.7-1.4,1.4-2.1,2.1C45.9,36,46.8,36.2,47.8,36.5z"/>
</g>
</svg>
