<?xml version="1.0" encoding="utf-8"?>
<!-- Generator: Adobe Illustrator 22.0.1, SVG Export Plug-In . SVG Version: 6.00 Build 0)  -->
<svg version="1.1" id="Layer_1" xmlns="http://www.w3.org/2000/svg" xmlns:xlink="http://www.w3.org/1999/xlink" x="0px" y="0px"
	 viewBox="0 0 81 81" style="enable-background:new 0 0 81 81;" xml:space="preserve">
<style type="text/css">
	.st0{fill:#64BBE1;}
	.st1{fill:#FFFFFF;}
</style>
<circle class="st0" cx="40.5" cy="40.5" r="40.5"/>
<g id="EIO9vN.tif">
</g>
<g>
	<path class="st1" d="M31.9,59.5c0.3,0,0.6,0,0.9,0c0.7,0,1.2,0.4,1.1,1c0,0.6-0.4,1-1.1,1c-1.3,0-2.6,0-3.9,0c-2.7,0-5.5,0-8.2,0
		c-0.7,0-1.1-0.4-1.1-1c0-0.6,0.4-1,1-1c0.3,0,0.7,0,1,0c0-4.2,0-8.3,0-12.5c-0.6,0-1.1,0-1.7,0c-1.1,0-2.2,0.1-3.3,0.1
		c-0.7,0-1.1-0.4-1.2-1c0-0.6,0.4-1,1.1-1c1.7-0.1,3.3-0.2,5.1-0.2c0-0.2,0-0.3,0-0.5c0-10.2,0-20.4,0-30.6c0-0.2,0-0.3,0-0.5
		c0-0.6,0.4-1.1,1-1.1c0.6,0,1,0.4,1,1.1c0,0.9,0,1.8,0,2.7c0,0.1,0,0.2,0,0.3c2,0,4.1,0,6.2,0c0-0.5,0-1,0-1.4c0-0.5,0-1,0-1.6
		c0-0.6,0.4-1.1,1-1.1c0.6,0,1,0.4,1,1.1c0,1.2,0,2.4,0,3.6c0,0.2,0,0.3,0.1,0.5c1.5,4.3,3.4,8.4,6.1,12c1.6,2.3,3.5,4.3,5.9,5.8
		c1.8,1.1,3.7,1.8,5.9,1.7c1.7-0.1,3.1-0.7,4.5-1.6c0.1,0,0.1-0.2,0.1-0.3c0-0.9,0-1.8,0-2.7c-0.1,0.1-0.2,0.1-0.2,0.2
		c-1.5,1.4-3.3,2.1-5.3,2.2c-0.3,0-0.7,0.1-1,0.1c-0.6,0-1.1-0.4-1.1-1c0-0.5,0.4-1,1-1.1c0.8-0.1,1.6-0.1,2.4-0.3
		c1.8-0.4,3-1.5,3.9-3c0.3-0.5,0.5-1,0.4-1.6c0-0.7,0-1.5,0-2.2c0-0.6,0.4-1,1-1c0.6,0,1,0.4,1,1.1c0,0.3,0,0.6,0,1
		c1.4,0,2.7,0,4.1,0c0-0.3,0-0.5,0-0.8c0-0.8,0.4-1.2,1-1.2c0.6,0,1,0.5,1,1.2c0,2.9,0,5.9,0,8.8c0,2.6,0,5.3,0,7.9
		c0,0.2,0,0.3,0,0.5c0.3,0,0.7,0,1,0c0.6,0,1.1,0.4,1.1,1c0,0.6-0.4,1-1.1,1c-0.3,0-0.6,0-0.9,0c0,2.8,0,5.5,0,8.2
		c0.3,0,0.6,0,0.9,0c0.6,0,1.1,0.4,1.1,1c0,0.6-0.4,1-1.1,1c-3.4,0-6.8,0-10.2,0c-0.6,0-1-0.4-1.1-1c0-0.6,0.4-1,1.1-1
		c0.3,0,0.6,0,1,0c0-2.6,0-5.2,0-7.8c-7.5,0.3-15,0.7-22.6,1C31.9,50.8,31.9,55.1,31.9,59.5z M54.5,37.8c-0.2,0.1-0.3,0.1-0.4,0.2
		c-3.1,1.4-6.2,1.5-9.4,0.1c-2.7-1.2-4.8-3.1-6.7-5.3c-2.4-2.8-4.3-5.9-5.8-9.3c-0.1-0.2-0.2-0.3-0.2-0.5c0,0.1,0,0.1,0,0.1
		c0,2.5,0,5.1,0,7.6c0,0.1,0.1,0.3,0.2,0.4c1.4,1.3,3,2.3,4.9,2.8c0.2,0.1,0.5,0.2,0.6,0.4c0.3,0.3,0.3,0.8,0,1.2
		c-0.3,0.4-0.7,0.6-1.2,0.4c-1.5-0.4-2.8-1.1-4.1-2c-0.1-0.1-0.3-0.2-0.4-0.3c0,3.7,0,7.2,0,10.9c7.5-0.3,15-0.7,22.6-1
		C54.5,41.5,54.5,39.7,54.5,37.8z M29.8,44.5c0-0.2,0-0.4,0-0.5c0-3.7,0-7.5,0-11.2c0-0.8-0.1-1.4-0.7-1.9c-0.1-0.1-0.1-0.1-0.2-0.2
		c-2-2.4-3.6-5.1-5-7.9c-0.1-0.1-0.1-0.2-0.2-0.4c0,7.5,0,14.9,0,22.3C25.7,44.7,27.8,44.6,29.8,44.5z M23.7,46.8c0,2.2,0,4.3,0,6.5
		c2.1,0,4.1,0,6.1,0c0-2.2,0-4.5,0-6.7C27.8,46.7,25.7,46.7,23.7,46.8z M60.6,32.4C60.6,32.4,60.6,32.3,60.6,32.4
		c-0.2,0.1-0.3,0.2-0.4,0.3c-1,1.3-2.2,2.6-3.5,3.6c-0.2,0.1-0.3,0.3-0.2,0.5c0,2.1,0,4.1,0,6.2c0,0.1,0,0.2,0,0.4
		c1.2,0,2.4-0.1,3.6-0.1c0.4,0,0.5-0.1,0.5-0.5c0-3.3,0-6.7,0-10C60.6,32.6,60.6,32.5,60.6,32.4z M29.8,18.4c-1.9,0-3.8,0-5.7,0
		c1.5,3.6,3.2,7,5.7,10.2C29.8,25.2,29.8,21.8,29.8,18.4z M23.7,55.4c0,1.4,0,2.7,0,4.1c2.1,0,4.1,0,6.1,0c0-1.4,0-2.7,0-4.1
		C27.8,55.4,25.7,55.4,23.7,55.4z M60.6,49.2c0-1.3,0-2.6,0-4c-1.4,0.1-2.7,0.1-4.1,0.2c0,1.3,0,2.5,0,3.8
		C57.9,49.2,59.2,49.2,60.6,49.2z M56.5,33.7c1.6-1.5,2.8-3.2,4-5c-1.4,0-2.7,0-4,0C56.5,30.4,56.5,32,56.5,33.7z M60.6,53.3
		c0-0.7,0-1.3,0-2c-1.4,0-2.7,0-4.1,0c0,0.7,0,1.3,0,2C57.9,53.3,59.2,53.3,60.6,53.3z"/>
	<path class="st1" d="M47.3,59.9c-1.7,1.1-3.4,1.3-5.3,0.5c-1-0.4-1.7-1.2-1.9-2.3c-0.1-0.5,0.1-1,0.5-1.2c0.3-0.2,0.8-0.2,1.1,0.1
		c0.2,0.2,0.3,0.4,0.4,0.6c0,0.5,0.4,0.8,0.8,1c1,0.4,2,0.4,2.9-0.2c0.2-0.1,0.4-0.4,0.5-0.7c0.1-0.5,0.4-0.9,1-0.9
		c0.5,0,1,0.3,1.1,0.8c0.1,0.5,0.4,0.8,0.8,1c1,0.4,2,0.4,2.9-0.2c0.2-0.1,0.4-0.4,0.5-0.7c0.2-0.6,0.6-1,1.2-0.9
		c0.6,0.1,0.9,0.6,0.8,1.2c-0.2,1.2-0.9,2-2,2.4C50.7,61.2,48.9,61,47.3,59.9z"/>
	<path class="st1" d="M55.1,65.2c-1.7,1.1-3.4,1.3-5.3,0.5c-1-0.4-1.7-1.2-1.9-2.3c-0.1-0.5,0.1-1,0.5-1.2c0.3-0.2,0.8-0.2,1.1,0.1
		c0.2,0.2,0.3,0.4,0.4,0.6c0,0.5,0.4,0.8,0.8,1c1,0.4,2,0.4,2.9-0.2c0.2-0.1,0.4-0.4,0.5-0.7c0.1-0.5,0.4-0.9,1-0.9
		c0.5,0,1,0.3,1.1,0.8c0.1,0.5,0.4,0.8,0.8,1c1,0.4,2,0.4,2.9-0.2c0.2-0.1,0.4-0.4,0.5-0.7c0.2-0.6,0.6-1,1.2-0.9
		c0.6,0.1,0.9,0.6,0.8,1.2c-0.2,1.2-0.9,2-2,2.4C58.5,66.5,56.8,66.4,55.1,65.2z"/>
</g>
</svg>
