<?xml version="1.0" encoding="utf-8"?>
<!-- Generator: Adobe Illustrator 22.0.1, SVG Export Plug-In . SVG Version: 6.00 Build 0)  -->
<svg version="1.1" id="Layer_1" xmlns="http://www.w3.org/2000/svg" xmlns:xlink="http://www.w3.org/1999/xlink" x="0px" y="0px"
	 viewBox="0 0 81 81" style="enable-background:new 0 0 81 81;" xml:space="preserve">
<style type="text/css">
	.st0{fill:#64BBE1;}
	.st1{fill:#FFFFFF;}
	.st2{fill-rule:evenodd;clip-rule:evenodd;fill:#FFFFFF;}
</style>
<circle class="st0" cx="40.5" cy="40.5" r="40.5"/>
<g id="EIO9vN.tif">
</g>
<path class="st1" d="M50.2,44.2c0.5-0.4,1.1-0.9,1.6-1.3c-0.2-0.3-0.5-0.6-0.7-0.9C50.8,42.8,50.5,43.5,50.2,44.2
	C50.2,44.2,50.2,44.2,50.2,44.2z"/>
<path class="st1" d="M46.4,44.2c-0.3-0.7-0.6-1.4-1-2.2c-0.3,0.3-0.5,0.6-0.7,0.9C45.2,43.3,45.8,43.8,46.4,44.2
	C46.3,44.2,46.3,44.2,46.4,44.2z"/>
<path class="st2" d="M41,29.1h-3.2v-3.6H29v-4.9h0c1.1-0.3,1.9-1.3,1.9-2.4c0-1.4-1.1-2.5-2.5-2.5s-2.5,1.1-2.5,2.5
	c0,1.2,0.8,2.1,1.8,2.4V27h8.9v2.1h-22c-0.3,0-0.6,0.3-0.6,0.6v15c0,0.3,0.3,0.6,0.6,0.6H41c0.3,0,0.6-0.3,0.6-0.6v-15
	C41.6,29.3,41.3,29.1,41,29.1z M27.1,18.2c0-0.6,0.5-1.1,1.1-1.1c0.6,0,1.1,0.5,1.1,1.1c0,0.6-0.5,1.1-1.1,1.1
	C27.6,19.3,27.1,18.8,27.1,18.2z M15.4,42.4c0-0.3,0.2-0.5,0.5-0.5h8.2c0.3,0,0.5,0.2,0.5,0.5s-0.2,0.5-0.5,0.5h-8.2
	C15.6,42.8,15.4,42.6,15.4,42.4z M20.2,44.3h-1.3c-0.3,0-0.5-0.2-0.5-0.5s0.2-0.5,0.5-0.5h1.3c0.3,0,0.5,0.2,0.5,0.5
	S20.4,44.3,20.2,44.3z M29.4,44.3h-8.2c-0.3,0-0.5-0.2-0.5-0.5s0.2-0.5,0.5-0.5h8.2c0.3,0,0.5,0.2,0.5,0.5S29.7,44.3,29.4,44.3z
	 M24.7,42.4c0-0.3,0.2-0.5,0.5-0.5h1.3c0.3,0,0.5,0.2,0.5,0.5s-0.2,0.5-0.5,0.5h-1.3C24.9,42.8,24.7,42.6,24.7,42.4z M36.8,39.4
	c0,0.9-0.7,1.6-1.6,1.6H17.5c-0.9,0-1.6-0.7-1.6-1.6v-6.8c0-0.9,0.7-1.6,1.6-1.6h17.7c0.9,0,1.6,0.7,1.6,1.6V39.4z M40.1,40.3
	c0,0.4-0.4,0.8-0.8,0.8s-0.8-0.4-0.8-0.8V32c0-0.4,0.4-0.8,0.8-0.8s0.8,0.4,0.8,0.8V40.3z"/>
<path class="st2" d="M44.3,62.3l0-6.4h-8.9v-1.8h8v-6.7c0,0,0,0,0,0H22.1c-0.3,0-0.6,0.2-0.6,0.6v1.9h-9.1v-4.4H7.6
	c-0.3-1.1-1.3-1.8-2.4-1.8c-1.4,0-2.5,1.1-2.5,2.5s1.1,2.5,2.5,2.5c1.2,0,2.2-0.8,2.4-1.9v0h3.4v4.4h10.6v1.4c0,0.1,0,0.2,0.1,0.2
	c0.1-0.1,0.2-0.2,0.4-0.2h8.8c0.2,0,0.4,0.1,0.4,0.3c0.1-0.2,0.2-0.3,0.4-0.3h1c0.3,0,0.5,0.2,0.5,0.5s-0.2,0.5-0.5,0.5h-1
	c-0.2,0-0.4-0.1-0.4-0.3c-0.1,0.2-0.2,0.3-0.4,0.3h-8.3c0,0.3,0.3,0.6,0.6,0.6h11v3.3h8.9v4.9h0c-1.1,0.3-1.9,1.3-1.9,2.4
	c0,1.4,1.1,2.5,2.5,2.5s2.5-1.1,2.5-2.5C46.1,63.6,45.3,62.6,44.3,62.3z M5.1,47.3c-0.6,0-1.1-0.5-1.1-1.1c0-0.6,0.5-1.1,1.1-1.1
	s1.1,0.5,1.1,1.1C6.2,46.8,5.7,47.3,5.1,47.3z M43.7,65.8c-0.6,0-1.1-0.5-1.1-1.1c0-0.6,0.5-1.1,1.1-1.1s1.1,0.5,1.1,1.1
	C44.8,65.3,44.3,65.8,43.7,65.8z"/>
<path class="st2" d="M74.8,33.5c-1.2,0-2.1,0.8-2.4,1.8H66v8.9h-2V29.6c-0.1-0.3-0.3-0.6-0.6-0.6h-7.5c-0.3,0-0.6,0.3-0.6,0.6v17.8
	h-2.3c0,0,0,0,0,0v3.7c0,0.3-0.2,0.5-0.5,0.5c-0.3,0-0.5-0.2-0.5-0.5v-3.7c0-0.3,0.2-0.5,0.5-0.5c0-0.4,0-0.9,0-1.3
	c-0.7,0-1.3,0-2,0c0,0.3,0,0.7,0,1c-0.7,0-1.5,0-2.2,0c0.2-0.1,0.9-0.8,0.9-1.1c0-0.1-0.1-0.3-0.1-0.4c0-0.2,0.1-0.4,0.1-0.6
	c0-0.2,0-1.5,0-3.1h0.2c0.5,0,0.9-0.4,0.9-0.9v-0.3H52c0.3,0,0.6-0.3,0.6-0.6v-15c0-0.3-0.3-0.6-0.6-0.6h-7.6
	c-0.3,0-0.6,0.3-0.6,0.6v15c0,0.3,0.3,0.6,0.6,0.6h1.6v0.3c0,0.5,0.4,0.9,0.9,0.9h0.2c0,1.7,0,3.2,0.1,3.5c0.1,0.3-0.1,0.4-0.1,0.7
	c0.1,0.2,0.7,0.9,0.9,1c-0.8,0-1.5,0-2.2,0c0-0.3,0-0.7,0-1c-0.7,0-1.3,0-2,0c0,0.5,0,0.9,0,1.3c0.3,0,0.5,0.2,0.5,0.5v6.7h7.7V53
	c0-0.3,0.2-0.5,0.5-0.5c0.3,0,0.5,0.2,0.5,0.5v1.2h9.4c0.3,0,0.6-0.2,0.6-0.6c0-0.3,0.2-0.5,0.5-0.5c0.3,0,0.5-0.2,0.5-0.5v-7.2h3.5
	v-8.9h4.9v0c0.3,1.1,1.3,1.9,2.4,1.9c1.4,0,2.5-1.1,2.5-2.5S76.2,33.5,74.8,33.5z M48,25.2h2.8c0.4,0,0.8,0.4,0.8,0.8
	s-0.4,0.8-0.8,0.8H48c-0.4,0-0.8-0.4-0.8-0.8S47.5,25.2,48,25.2z M47.2,28.4c0-0.4,0.4-0.8,0.8-0.8h2.8c0.4,0,0.8,0.4,0.8,0.8
	s-0.4,0.8-0.8,0.8H48C47.5,29.2,47.2,28.9,47.2,28.4z M48.8,41.6c0,0.2,0,0.4-0.1,0.5c-0.3,0.3-0.6,0.7-0.8,1c0-0.2-0.1-0.4-0.1-0.6
	c-0.1-0.3,0.1-0.6,0.4-0.9H48.8z M47.8,45.1c0-0.1-0.1-0.3-0.1-0.4c0-0.3,0-0.5,0.1-0.8c0.2-0.2,0.4-0.4,0.6-0.7
	c0.1-0.1,0.1-0.1,0.2-0.2c0.1,0.2,0.1,0.4,0.1,0.6c0,0.3-0.1,0.5-0.3,0.7C48.3,44.6,48.1,44.8,47.8,45.1z M48.1,46
	c-0.2-0.4,0.4-0.7,0.6-1c0.1,0.2,0.2,0.3,0,0.5C48.6,45.7,48.3,45.9,48.1,46z M60.7,47.9h-4.4c-0.3,0-0.5-0.2-0.5-0.5S56,47,56.3,47
	h4.4c0.3,0,0.5,0.2,0.5,0.5S60.9,47.9,60.7,47.9z M58.1,41.1c-0.4,0-0.7-0.3-0.7-0.8v-8.5c0-0.4,0.3-0.8,0.7-0.8h3.2
	c0.4,0,0.7,0.3,0.7,0.8v8.5c0,0.4-0.3,0.8-0.7,0.8H58.1z M63,47.9h-1.2c-0.3,0-0.5-0.2-0.5-0.5s0.2-0.5,0.5-0.5H63
	c0.3,0,0.5,0.2,0.5,0.5S63.3,47.9,63,47.9z M74.8,37c-0.6,0-1.1-0.5-1.1-1.1c0-0.6,0.5-1.1,1.1-1.1c0.6,0,1.1,0.5,1.1,1.1
	C75.9,36.5,75.4,37,74.8,37z"/>
<path class="st1" d="M15.9,58.3h-1.3c-0.3,0-0.5-0.2-0.5-0.5c0-0.3,0.2-0.5,0.5-0.5h1.3c0.3,0,0.5,0.2,0.5,0.5
	C16.4,58.1,16.2,58.3,15.9,58.3z"/>
<path class="st1" d="M26.2,58.3H18c-0.3,0-0.5-0.2-0.5-0.5c0-0.3,0.2-0.5,0.5-0.5h8.2c0.3,0,0.5,0.2,0.5,0.5
	C26.7,58.1,26.4,58.3,26.2,58.3z"/>
<path class="st1" d="M28.2,59.6h1.3c0.3,0,0.5,0.2,0.5,0.5c0,0.3-0.2,0.5-0.5,0.5h-1.3c-0.3,0-0.5-0.2-0.5-0.5
	C27.7,59.8,27.9,59.6,28.2,59.6z"/>
<path class="st1" d="M17.9,59.6h8.2c0.3,0,0.5,0.2,0.5,0.5c0,0.3-0.2,0.5-0.5,0.5h-8.2c-0.3,0-0.5-0.2-0.5-0.5
	C17.4,59.8,17.7,59.6,17.9,59.6z"/>
<path class="st1" d="M73.3,49.7v-1.3c0-0.3,0.2-0.5,0.5-0.5c0.3,0,0.5,0.2,0.5,0.5v1.3c0,0.3-0.2,0.5-0.5,0.5
	C73.5,50.2,73.3,50,73.3,49.7z"/>
<path class="st1" d="M73.3,59.9v-8.2c0-0.3,0.2-0.5,0.5-0.5c0.3,0,0.5,0.2,0.5,0.5v8.2c0,0.3-0.2,0.5-0.5,0.5
	C73.5,60.4,73.3,60.2,73.3,59.9z"/>
<path class="st1" d="M72,61.9v1.3c0,0.3-0.2,0.5-0.5,0.5S71,63.4,71,63.2v-1.3c0-0.3,0.2-0.5,0.5-0.5S72,61.6,72,61.9z"/>
<path class="st1" d="M72,51.7v8.2c0,0.3-0.2,0.5-0.5,0.5S71,60.2,71,59.9v-8.2c0-0.3,0.2-0.5,0.5-0.5S72,51.4,72,51.7z"/>
<path class="st1" d="M9.8,20.7v-1.3c0-0.3,0.2-0.5,0.5-0.5c0.3,0,0.5,0.2,0.5,0.5v1.3c0,0.3-0.2,0.5-0.5,0.5
	C10.1,21.2,9.8,21,9.8,20.7z"/>
<path class="st1" d="M9.8,30.9v-8.2c0-0.3,0.2-0.5,0.5-0.5c0.3,0,0.5,0.2,0.5,0.5v8.2c0,0.3-0.2,0.5-0.5,0.5
	C10.1,31.4,9.8,31.2,9.8,30.9z"/>
<path class="st1" d="M8.5,32.9v1.3c0,0.3-0.2,0.5-0.5,0.5c-0.3,0-0.5-0.2-0.5-0.5v-1.3c0-0.3,0.2-0.5,0.5-0.5
	C8.3,32.4,8.5,32.6,8.5,32.9z"/>
<path class="st1" d="M8.5,22.7v8.2c0,0.3-0.2,0.5-0.5,0.5c-0.3,0-0.5-0.2-0.5-0.5v-8.2c0-0.3,0.2-0.5,0.5-0.5
	C8.3,22.2,8.5,22.4,8.5,22.7z"/>
<path class="st1" d="M70.7,21H72c0.3,0,0.5,0.2,0.5,0.5S72.2,22,72,22h-1.3c-0.3,0-0.5-0.2-0.5-0.5S70.4,21,70.7,21z"/>
<path class="st1" d="M60.5,21h8.2c0.3,0,0.5,0.2,0.5,0.5S68.9,22,68.7,22h-8.2c-0.3,0-0.5-0.2-0.5-0.5S60.2,21,60.5,21z"/>
<path class="st1" d="M58.5,19.7h-1.3c-0.3,0-0.5-0.2-0.5-0.5c0-0.3,0.2-0.5,0.5-0.5h1.3c0.3,0,0.5,0.2,0.5,0.5
	C59,19.5,58.7,19.7,58.5,19.7z"/>
<path class="st1" d="M68.7,19.7h-8.2c-0.3,0-0.5-0.2-0.5-0.5c0-0.3,0.2-0.5,0.5-0.5h8.2c0.3,0,0.5,0.2,0.5,0.5
	C69.2,19.5,69,19.7,68.7,19.7z"/>
</svg>
