<?xml version="1.0" encoding="utf-8"?>
<!-- Generator: Adobe Illustrator 22.0.1, SVG Export Plug-In . SVG Version: 6.00 Build 0)  -->
<svg version="1.1" id="Layer_1" xmlns="http://www.w3.org/2000/svg" xmlns:xlink="http://www.w3.org/1999/xlink" x="0px" y="0px"
	 viewBox="0 0 81 81" style="enable-background:new 0 0 81 81;" xml:space="preserve">
<style type="text/css">
	.st0{fill:#64BBE1;}
	.st1{fill:#FFFFFF;}
</style>
<circle class="st0" cx="40.5" cy="40.5" r="40.5"/>
<g id="EIO9vN.tif">
</g>
<g>
	<path class="st1" d="M45.3,24.6c-1.3,0-2.6,0-4,0c0,0.5,0,1,0,1.5c0,0.1,0.3,0.3,0.5,0.4c3.8,1.5,7.6,2.9,11.4,4.4
		c1.2,0.5,2.5,0.9,3.7,1.4c-0.3,0.3-0.6,0.5-0.9,0.8c5.7,0,11.2,0,16.7,0c0,1,0,1.9,0,3c0.4,0,0.7,0,1,0c0.5,0,0.8,0.2,0.8,0.7
		c0,0.5-0.3,0.7-0.8,0.6c-0.3,0-0.6,0-0.9,0c0,6,0,11.9,0,17.9c-6.3,0-12.5,0-18.8,0c0,0.3,0,0.5,0,0.7c0.4,0,0.8,0,1.2,0.1
		c0,0.4,0,0.8,0,1.3c-1.3,0-2.6,0-3.9,0c0-0.4,0-0.8,0-1.3c0.4,0,0.8,0,1.2-0.1c0-0.2,0-0.4,0-0.6c-2.4,0-4.7,0-7.1,0
		c0,0.2,0,0.4,0,0.7c0.4,0,0.8,0,1.2,0c0,0.5,0,0.9,0,1.3c-1.3,0-2.6,0-3.9,0c0-0.4,0-0.8,0-1.3c0.4,0,0.8,0,1.2,0
		c0-0.3,0-0.4,0-0.7c-2.4,0-4.7,0-7.1,0c0,0.2,0,0.4,0,0.6c0.4,0,0.8,0,1.2,0.1c0,0.4,0,0.8,0,1.3c-1.3,0-2.5,0-3.9,0
		c0-0.4,0-0.8,0-1.2c0.4,0,0.8,0,1.2-0.1c0-0.2,0-0.4,0-0.6c-2.4,0-4.7,0-7.1,0c0,0.2,0,0.4,0,0.6c0.4,0,0.8,0,1.2,0
		c0,0.5,0,0.9,0,1.3c-1.3,0-2.5,0-3.8,0c0-0.4,0-0.8,0-1.3c0.4,0,0.8,0,1.2,0c0-0.2,0-0.4,0-0.6c-6.3,0-12.5,0-18.8,0
		c0-6,0-11.9,0-18c-0.4,0-0.7,0-1,0c-0.4,0-0.6-0.2-0.6-0.6c0-0.4,0.2-0.7,0.6-0.7c0.3,0,0.7,0,1.1,0c0-1,0-1.9,0-2.9
		c5.7,0,11.3,0,16.9,0c0,0,0-0.1,0.1-0.1c-0.3-0.2-0.5-0.5-0.9-0.7c1.7-0.7,3.3-1.3,5-1.9c3.4-1.3,6.8-2.6,10.2-3.9
		c0.4-0.1,0.5-0.3,0.5-0.8c0-1.6,0-3.2,0-4.8c1.8,0,3.5,0,5.3,0C45.3,22.2,45.3,23.4,45.3,24.6z M9.6,54.1c5.8,0,11.7,0,17.5,0
		c0-4.9,0-9.7,0-14.7c-0.4,0-0.8,0-1.3,0c0.1-0.7,0.3-1.3,0.4-1.9c-5.5,0-11,0-16.5,0C9.6,43,9.6,48.5,9.6,54.1z M54,54
		c5.8,0,11.6,0,17.5,0c0-5.5,0-11,0-16.6c-5.5,0-11,0-16.6,0c0,0.2,0,0.5,0.1,0.5c0.7,0.4,0.2,0.9,0.4,1.4c-0.5,0-0.9,0-1.3,0.1
		C54,44.4,54,49.2,54,54z M45.6,39.4c0,4.9,0,9.8,0,14.6c2.4,0,4.8,0,7.1,0c0-4.9,0-9.7,0-14.6c-0.4,0-0.8,0-1.2-0.1
		c0-0.4,0-0.8-0.1-1.1c-1.5,0-3,0-4.6,0c0,0.4,0,0.8,0,1.2C46.3,39.4,46,39.4,45.6,39.4z M34.3,38.3c-1.6,0-3.1,0-4.6,0
		c0,0.4,0,0.7-0.1,1.2c-0.4,0-0.8,0-1.2,0c0,4.9,0,9.8,0,14.6c2.4,0,4.7,0,7.1,0c0-4.9,0-9.7,0-14.6c-0.4,0-0.8,0-1.2-0.1
		C34.3,39,34.3,38.7,34.3,38.3z M44.1,39.4c-0.4,0-0.8,0-1.3,0c0-0.4,0-0.8,0-1.1c-1.6,0-3,0-4.6,0c0,0.4,0,0.7,0,1.2
		c-0.4,0-0.8,0-1.2,0c0,4.9,0,9.8,0,14.6c2.4,0,4.8,0,7.1,0C44.1,49.2,44.1,44.3,44.1,39.4z M26.9,32.7c0,0.1,0,0.1,0,0.2
		c0.3,0,0.6,0.1,0.8,0.1c6.4,0,12.9,0,19.3,0c2.2,0,4.5,0,6.7,0c0.2,0,0.5-0.1,0.7-0.2c-0.1-0.2-0.3-0.3-0.4-0.3
		c-4.3-1.7-8.6-3.3-12.9-5c-0.3-0.1-0.7-0.1-1,0c-3.7,1.4-7.4,2.8-11.1,4.3C28.3,32.2,27.6,32.5,26.9,32.7z M27.5,36.8
		c8.7,0,17.4,0,26,0c0-0.8,0-1.5,0-2.2c-8.7,0-17.4,0-26,0C27.5,35.4,27.5,36.1,27.5,36.8z M41.3,23.2c0.9,0,1.7,0,2.6,0
		c0-0.3,0-0.7,0-1c-0.9,0-1.7,0-2.6,0C41.3,22.6,41.3,22.9,41.3,23.2z M54.9,36.1c0.6,0,1.1,0,1.7,0c0-0.5,0-1,0-1.5
		c-0.6,0-1.1,0-1.7,0C54.9,35.1,54.9,35.5,54.9,36.1z M68.6,34.6c-0.6,0-1.1,0-1.6,0c0,0.5,0,1,0,1.5c0.5,0,1,0,1.6,0
		C68.6,35.6,68.6,35.1,68.6,34.6z M20.1,34.6c-0.6,0-1.1,0-1.6,0c0,0.5,0,1,0,1.5c0.5,0,1.1,0,1.6,0C20.1,35.6,20.1,35.1,20.1,34.6z
		 M58,36.1c0.5,0,1,0,1.6,0c0-0.5,0-1,0-1.5c-0.5,0-1.1,0-1.6,0C58,35.1,58,35.6,58,36.1z M11.2,36.1c0-0.5,0-1,0-1.5
		c-0.5,0-1.1,0-1.6,0c0,0.5,0,1,0,1.5C10.1,36.1,10.6,36.1,11.2,36.1z M12.6,34.6c0,0.5,0,1,0,1.5c0.5,0,1.1,0,1.6,0
		c0-0.5,0-1,0-1.5C13.6,34.6,13.1,34.6,12.6,34.6z M15.6,34.6c0,0.5,0,1,0,1.5c0.5,0,1,0,1.6,0c0-0.5,0-1,0-1.5
		C16.6,34.6,16.1,34.6,15.6,34.6z M64,34.6c0,0.5,0,1,0,1.5c0.6,0,1,0,1.5,0c0-0.5,0-1,0-1.5C65,34.6,64.6,34.6,64,34.6z M61.1,34.6
		c0,0.5,0,1,0,1.5c0.5,0,1.1,0,1.6,0c0-0.5,0-1,0-1.5C62.1,34.6,61.6,34.6,61.1,34.6z M26.1,34.6c-0.5,0-1,0-1.6,0c0,0.5,0,1,0,1.5
		c0.5,0,1,0,1.6,0C26.1,35.5,26.1,35.1,26.1,34.6z M21.5,34.6c0,0.5,0,1,0,1.5c0.5,0,1,0,1.6,0c0-0.5,0-1,0-1.5
		C22.6,34.6,22.1,34.6,21.5,34.6z M70,34.6c0,0.5,0,1,0,1.5c0.5,0,1,0,1.5,0c0-0.5,0-1,0-1.5C71,34.6,70.5,34.6,70,34.6z"/>
	<path class="st1" d="M10.9,47.8c1,0,2,0,3,0c0,0.4,0,0.8,0,1.3c-0.5,0-1.1,0-1.7,0c0,1.2,0,2.4,0,3.6c-0.4,0-0.8,0-1.3,0
		C10.9,51.1,10.9,49.4,10.9,47.8z"/>
	<path class="st1" d="M16.4,52.7c0-1.7,0-3.3,0-4.9c1,0,2,0,3,0c0,0.4,0,0.8,0,1.3c-0.6,0-1.1,0-1.7,0c0,1.2,0,2.4,0,3.6
		C17.3,52.7,16.9,52.7,16.4,52.7z"/>
	<path class="st1" d="M23.3,52.7c-0.5,0-0.9,0-1.3,0c0-1.7,0-3.3,0-4.9c1,0,2,0,3,0c0,0.4,0,0.8,0,1.3c-0.5,0-1.1,0-1.7,0
		C23.3,50.3,23.3,51.5,23.3,52.7z"/>
	<path class="st1" d="M23.3,45.6c-0.5,0-0.9,0-1.3,0c0-1.6,0-3.3,0-4.9c1,0,2,0,3,0c0,0.4,0,0.8,0,1.2c-0.5,0-1.1,0-1.7,0
		C23.3,43.2,23.3,44.4,23.3,45.6z"/>
	<path class="st1" d="M12.2,41.9c0,1.3,0,2.4,0,3.7c-0.4,0-0.9,0-1.3,0c0-1.6,0-3.3,0-4.9c1,0,2,0,3,0c0,0.4,0,0.8,0,1.2
		C13.3,41.9,12.8,41.9,12.2,41.9z"/>
	<path class="st1" d="M19.4,40.7c0,0.4,0,0.8,0,1.3c-0.6,0-1.1,0-1.7,0c0,1.2,0,2.4,0,3.7c-0.5,0-0.9,0-1.3,0c0-1.6,0-3.3,0-4.9
		C17.4,40.7,18.4,40.7,19.4,40.7z"/>
	<path class="st1" d="M69.6,47.8c0,0.4,0,0.8,0,1.3c-0.5,0-1.1,0-1.7,0c0,1.2,0,2.4,0,3.6c-0.5,0-0.9,0-1.4,0c0-1.6,0-3.3,0-4.9
		C67.5,47.8,68.5,47.8,69.6,47.8z"/>
	<path class="st1" d="M60.9,52.7c0-1.7,0-3.3,0-4.9c1,0,2,0,3,0c0,0.4,0,0.8,0,1.3c-0.5,0-1.1,0-1.7,0c0,1.2,0,2.4,0,3.6
		C61.8,52.7,61.4,52.7,60.9,52.7z"/>
	<path class="st1" d="M55.4,47.8c1,0,2,0,3,0c0,0.4,0,0.8,0,1.3c-0.5,0-1.1,0-1.7,0c0,1.2,0,2.4,0,3.6c-0.5,0-0.9,0-1.3,0
		C55.4,51.1,55.4,49.4,55.4,47.8z"/>
	<path class="st1" d="M58.5,40.7c0,0.4,0,0.8,0,1.3c-0.6,0-1.1,0-1.7,0c0,1.2,0,2.4,0,3.7c-0.5,0-0.9,0-1.4,0c0-1.6,0-3.3,0-4.9
		C56.4,40.7,57.4,40.7,58.5,40.7z"/>
	<path class="st1" d="M61,40.7c1,0,2,0,3,0c0,0.4,0,0.8,0,1.3c-0.5,0-1.1,0-1.7,0c0,1.2,0,2.4,0,3.7c-0.5,0-0.9,0-1.4,0
		C61,44,61,42.4,61,40.7z"/>
	<path class="st1" d="M69.5,42c-0.6,0-1.1,0-1.7,0c0,1.2,0,2.4,0,3.6c-0.5,0-0.9,0-1.4,0c0-1.6,0-3.2,0-4.9c1,0,2,0,3,0
		C69.5,41.1,69.5,41.5,69.5,42z"/>
	<path class="st1" d="M49.1,49.1c0,1.2,0,2.4,0,3.6c-0.5,0-0.8,0-1.3,0c0-1.6,0-3.3,0-4.9c1,0,2,0,3,0c0,0.4,0,0.8,0,1.3
		C50.2,49.1,49.7,49.1,49.1,49.1z"/>
	<path class="st1" d="M47.8,45.6c0-1.7,0-3.3,0-4.9c1,0,2,0,3,0c0,0.4,0,0.8,0,1.2c-0.5,0-1.1,0-1.7,0c0,1.2,0,2.4,0,3.7
		C48.6,45.6,48.2,45.6,47.8,45.6z"/>
	<path class="st1" d="M31.7,52.7c-0.5,0-0.9,0-1.3,0c0-1.6,0-3.3,0-4.9c1,0,2,0,3,0c0,0.4,0,0.8,0,1.3c-0.5,0-1.1,0-1.7,0
		C31.7,50.3,31.7,51.5,31.7,52.7z"/>
	<path class="st1" d="M30.4,40.7c1,0,2,0,3,0c0,0.4,0,0.8,0,1.3c-0.6,0-1.1,0-1.7,0c0,1.3,0,2.4,0,3.7c-0.5,0-0.9,0-1.3,0
		C30.4,44,30.4,42.4,30.4,40.7z"/>
	<path class="st1" d="M40.2,52.7c-0.5,0-0.9,0-1.3,0c0-1.6,0-3.3,0-4.9c1,0,2,0,3,0c0,0.4,0,0.8,0,1.3c-0.5,0-1.1,0-1.7,0
		C40.2,50.3,40.2,51.5,40.2,52.7z"/>
	<path class="st1" d="M38.9,40.7c1,0,2,0,3,0c0,0.4,0,0.8,0,1.2c-0.5,0-1.1,0-1.7,0c0,1.3,0,2.4,0,3.7c-0.5,0-0.9,0-1.3,0
		C38.9,44,38.9,42.4,38.9,40.7z"/>
</g>
</svg>
