<?xml version="1.0" encoding="utf-8"?>
<!-- Generator: Adobe Illustrator 22.0.1, SVG Export Plug-In . SVG Version: 6.00 Build 0)  -->
<svg version="1.1" id="Layer_1" xmlns="http://www.w3.org/2000/svg" xmlns:xlink="http://www.w3.org/1999/xlink" x="0px" y="0px"
	 viewBox="0 0 81 81" style="enable-background:new 0 0 81 81;" xml:space="preserve">
<style type="text/css">
	.st0{fill:#64BBE1;}
	.st1{fill:#F6CC19;stroke:#FFFFFF;stroke-width:0.25;stroke-linecap:round;stroke-linejoin:round;stroke-miterlimit:10;}
	.st2{fill:none;stroke:#FFFFFF;stroke-width:0.25;stroke-linecap:round;stroke-linejoin:round;stroke-miterlimit:10;}
	.st3{fill:none;stroke:#FFFFFF;stroke-width:0.25;stroke-miterlimit:10;}
	.st4{fill:#FFFFFF;}
</style>
<circle class="st0" cx="40.5" cy="40.5" r="40.5"/>
<g>
	<g>
		<path class="st1" d="M36.3,15.5c-0.7-0.7-1.3-1.4-1.9-2.1c-0.5,0.4-0.9,0.6-1.3,0.9c-0.5-0.3-1-0.6-1.5-0.9c0-0.5,0.1-1,0.1-1.6
			c-0.9-0.2-1.8-0.5-2.7-0.7c-0.3,0.5-0.5,1-0.7,1.4c-0.6,0-1.2,0-1.7,0c-0.2-0.4-0.4-0.9-0.7-1.4c-0.9,0.3-1.8,0.5-2.7,0.7
			c0.1,0.6,0.1,1.1,0.2,1.6c-0.5,0.3-1,0.6-1.5,0.9c-0.4-0.3-0.8-0.6-1.3-0.9c-0.7,0.7-1.3,1.3-2,1.9c0.4,0.5,0.7,0.9,0.9,1.3
			c-0.3,0.5-0.6,1-0.9,1.5c-0.5,0-1-0.1-1.6-0.1c-0.2,0.9-0.5,1.8-0.7,2.7c0.6,0.3,1,0.5,1.4,0.7c0,0.6,0,1.2,0,1.7
			c-0.4,0.2-0.9,0.4-1.4,0.7c0.2,0.9,0.5,1.8,0.7,2.7c0.6,0,1.1-0.1,1.6-0.1c0.3,0.5,0.6,1,0.9,1.5c-0.3,0.4-0.6,0.8-0.9,1.3
			c0.7,0.7,1.3,1.4,1.9,2c0.6-0.4,1-0.7,1.4-0.9c0.5,0.3,1,0.6,1.5,0.9c-0.1,0.5-0.1,1-0.2,1.6c0.9,0.2,1.8,0.5,2.7,0.7
			c0.3-0.6,0.5-1,0.7-1.4c0.6,0,1.1,0,1.7,0c0.2,0.5,0.4,0.9,0.7,1.5c0.9-0.3,1.8-0.5,2.7-0.7c-0.1-0.6-0.1-1.1-0.2-1.6
			c0.5-0.3,1-0.6,1.5-0.9c0.4,0.3,0.8,0.6,1.3,0.9c0.7-0.7,1.3-1.3,2-1.9c-0.4-0.6-0.7-1-1-1.4c0.3-0.5,0.6-1,0.9-1.5
			c0.5,0,1,0.1,1.6,0.1c0.2-0.9,0.5-1.8,0.7-2.7c-0.6-0.3-1-0.5-1.4-0.6c0-0.6,0-1.2,0-1.8c0.5-0.2,0.9-0.4,1.4-0.7
			c-0.2-0.9-0.5-1.8-0.7-2.7c-0.6,0.1-1.1,0.1-1.6,0.1c-0.3-0.5-0.6-1-0.9-1.5C35.7,16.3,36,15.9,36.3,15.5z"/>
	</g>
	<g>
		<g>
			<path class="st2" d="M26.2,14.5c-2.1,0.3-3.9,1.4-5.1,3"/>
			<path class="st2" d="M26.2,13.7c-2.4,0.3-4.5,1.6-5.8,3.5"/>
			<path class="st2" d="M28.6,14.5c-0.3,0-0.4-0.1-0.7-0.1"/>
			<path class="st2" d="M30.5,15c-0.1-0.1-0.3-0.1-0.4-0.2"/>
			<path class="st2" d="M35,20.1c-0.5-1.6-1.4-3-2.6-4"/>
			<path class="st2" d="M32,28.8c2-1.4,3.4-3.8,3.4-6.5c0-0.1,0-0.2,0-0.4"/>
			<path class="st2" d="M25.4,30c0.7,0.2,1.3,0.3,2,0.3c1,0,1.9-0.2,2.8-0.5"/>
			<path class="st2" d="M19.6,23.3c0.3,2.6,1.9,4.8,4.1,6"/>
			<path class="st2" d="M20.1,19.2c-0.3,0.7-0.5,1.5-0.6,2.4"/>
			<path class="st2" d="M28.6,13.7c-0.2,0-0.5,0-0.7-0.1"/>
			<path class="st2" d="M31.6,14.7c-0.4-0.2-0.7-0.3-1.2-0.5"/>
			<path class="st2" d="M35.8,20.1c-0.4-1.5-1.2-2.8-2.2-3.9"/>
			<path class="st2" d="M32,29.7c2.5-1.6,4.2-4.3,4.1-7.4c0-0.1,0-0.2,0-0.4"/>
			<path class="st2" d="M25.4,30.8c0.7,0.2,1.3,0.2,2,0.2c1,0,1.9-0.2,2.8-0.5"/>
			<path class="st2" d="M18.8,23.3c0.3,3,2.2,5.5,4.8,6.8"/>
			<path class="st2" d="M19.3,19.2c-0.3,0.8-0.5,1.6-0.5,2.4"/>
			<line class="st2" x1="31.6" y1="25.4" x2="30.2" y2="25.4"/>
			<line class="st2" x1="32.5" y1="25.4" x2="32.1" y2="25.4"/>
			<line class="st2" x1="29.2" y1="18.4" x2="30.6" y2="18.4"/>
			<line class="st2" x1="28.3" y1="18.4" x2="28.7" y2="18.4"/>
			<line class="st2" x1="29.4" y1="28.2" x2="29.4" y2="25.7"/>
			<line class="st2" x1="24.8" y1="25.5" x2="24.8" y2="27.1"/>
			<line class="st2" x1="23.2" y1="19.8" x2="23.2" y2="18.4"/>
			<line class="st2" x1="30" y1="19.1" x2="26.2" y2="19.1"/>
			<line class="st2" x1="30.9" y1="19.1" x2="30.5" y2="19.1"/>
			<line class="st2" x1="23.8" y1="19.3" x2="23.8" y2="16.8"/>
			<circle class="st3" cx="22.7" cy="25.5" r="0.3"/>
			<circle class="st3" cx="34" cy="24.6" r="0.3"/>
			<circle class="st3" cx="25.2" cy="18.1" r="0.3"/>
			<line class="st2" x1="25.8" y1="28.1" x2="25.8" y2="26.6"/>
		</g>
	</g>
	<g>
		<path class="st4" d="M20.7,24.4l0.7-4.4h0.8l1.1,2.6l1.1-2.6h0.8l0.7,4.4h-1l-0.4-2.6l-1.1,2.6h-0.4L22,21.8l-0.4,2.6H20.7z"/>
		<path class="st4" d="M29.2,20.9h-1.4v0.9h1.3v0.9h-1.3v1.8h-1V20h2.4V20.9z"/>
		<path class="st4" d="M32,22h2.2v0c0,0.5-0.2,1.3-0.7,1.9c-0.5,0.5-1.1,0.6-1.6,0.6c-0.5,0-1.1-0.1-1.6-0.6
			c-0.3-0.3-0.6-0.8-0.6-1.7c0-0.7,0.3-1.3,0.6-1.7c0.5-0.6,1.2-0.6,1.7-0.6c0.4,0,0.8,0.1,1.2,0.3c0.3,0.2,0.6,0.5,0.7,0.8
			l-0.9,0.5c-0.1-0.2-0.2-0.4-0.4-0.5c-0.2-0.1-0.4-0.2-0.7-0.2c-0.4,0-0.7,0.1-0.9,0.4c-0.2,0.3-0.4,0.6-0.4,1c0,0.5,0.2,0.8,0.4,1
			c0.3,0.3,0.6,0.3,0.9,0.3c0.4,0,0.7-0.2,0.8-0.2c0,0,0.2-0.2,0.3-0.5H32V22z"/>
	</g>
	<g>
		<circle class="st4" cx="22.3" cy="18.7" r="0.3"/>
		<circle class="st4" cx="25.6" cy="16.4" r="0.3"/>
		<circle class="st4" cx="29.8" cy="16.5" r="0.3"/>
		<circle class="st4" cx="32" cy="17.9" r="0.3"/>
		<circle class="st4" cx="33" cy="26" r="0.3"/>
		<circle class="st4" cx="30.2" cy="28.3" r="0.3"/>
		<circle class="st4" cx="24.1" cy="28" r="0.3"/>
	</g>
</g>
<g id="EIO9vN.tif">
</g>
<g>
	<path class="st4" d="M43.5,41.1c0,0.6,0,0.9,0,1.2c0,5.8,0,11.6,0,17.3c0,1.9-0.5,2.4-2.5,2.4c-8.2,0-16.4,0-24.7,0
		c-1.9,0-2.3-0.4-2.3-2.2c0-6.8,0-13.6,0-20.4c0-1.7,0.4-2.2,2.2-2.2c7.9,0,15.9,0,23.8,0c0.3,0,0.6,0,1,0c-0.1-0.3-0.2-0.5-0.3-0.7
		c-0.4-0.8-0.2-1.5,0.5-1.9c1.8-1.2,3.6-2.3,5.4-3.4c0.3-0.2,0.8-0.2,1.4-0.3c-0.7-0.7-1.2-1.3-1.9-1.8c-0.4-0.3-0.4-0.6-0.2-1
		c0.3-0.6,0.6-1.2,1-1.9c3.1,1.6,4.3,4.5,5.4,7.7c0.9-1.2,1.9-2.2,3.3-2.6c1.9-0.5,3.6-0.1,5,1.3c1.4,1.4,2,3.1,1.5,5
		c-0.3,1.2-0.9,2.4-1.4,3.8c0.8,0,1.5,0,2.2,0c1.9-0.1,3.6,0.4,4.8,2c2.5,3.1,0.8,7.7-3.1,8.4c-0.1,0-0.3,0.1-0.6,0.2
		c0.6,0.7,1.1,1.2,1.6,1.8c1.5,1.6,2.6,3.4,2.9,5.6c0.1,0.7-0.1,0.9-0.8,0.9c-0.1,0-0.2,0-0.4,0c-1.5,0-1.4,0-1.9-1.4
		c-0.2-0.6-0.5-1.1-0.8-1.6c-0.5,0.5-0.9,1.1-1.5,1.5c-1.5,1-3,2-4.5,2.9c-1,0.6-1.7,0.5-2.4-0.6c-2.3-3.6-4.6-7.1-6.8-10.7
		c-1.8-2.8-3.6-5.7-5.4-8.5C44,41.6,43.8,41.5,43.5,41.1z M25.2,49.7c0-2.8,0-5.7,0-8.5c0-0.7-0.2-0.9-1-0.9c-2.1,0-4.3,0-6.4,0
		c-0.8,0-1,0.2-1,1c0,5.7,0,11.3,0,17c0,0.7,0.2,1,0.9,1c2.2,0,4.3,0,6.5,0c0.7,0,0.9-0.2,0.9-0.9C25.2,55.4,25.2,52.6,25.2,49.7z
		 M40.4,59.1c0.1-0.2,0.1-0.3,0.1-0.4c0-6,0-11.9,0-17.9c0-0.6-0.3-0.6-0.7-0.6c-2.2,0-4.3,0-6.5,0c-0.3,0-0.6,0-1,0
		c0,6.4,0,12.6,0,18.8C35.1,59.1,37.8,59.1,40.4,59.1z M27,49.6c0,2.9,0,5.8,0,8.7c0,0.6,0.2,0.9,0.8,0.8c0.6-0.1,1.2-0.1,1.8,0
		c0.7,0.1,0.9-0.3,0.9-0.9c0-2.3,0-4.5,0-6.8c0-3.4,0-6.8,0-10.3c0-0.7-0.2-1-0.9-0.9c-0.5,0.1-1.1,0.1-1.6,0
		c-0.7-0.1-1,0.2-0.9,0.9C27,44,27,46.8,27,49.6z M52.1,42.6c-1.6-2.6-3.2-5.1-4.8-7.6c-0.1-0.2-0.6-0.2-0.8-0.1
		c-0.6,0.3-1.2,0.8-1.8,1.1c-0.5,0.3-0.5,0.6-0.2,1c1.1,1.7,2.1,3.4,3.2,5.1c1.6,2.5,1.6,2.5,4.1,0.7C51.9,42.8,52,42.7,52.1,42.6z
		 M53,50.4c1.7,2.6,3.2,5.1,4.8,7.5c0.1,0.2,0.5,0.3,0.6,0.3c0.9-0.5,1.7-1,2.6-1.6c-1.7-2.6-3.2-5.1-4.9-7.6
		c-0.1-0.2-0.5-0.3-0.7-0.2C54.7,49.2,53.9,49.8,53,50.4z M62.2,44c-1.2,0.2-2.5,0.4-3.8,0.7c-0.3,0.1-0.6,0.3-0.9,0.5
		c0.2,0.3,0.4,0.7,0.6,0.8c1.6,0.9,3.2,1.9,4.9,2.7c1.2,0.6,2.5-0.2,3-1.5c0.4-1.1-0.3-2.4-1.5-2.8C63.8,44.2,63,44.2,62.2,44z
		 M54.8,37.6c0,0-0.1,0-0.1,0c0.3,1.4,0.5,2.9,0.8,4.3c0.2,0.8,0.5,0.8,1,0.2c1.4-1.6,2.5-3.3,3-5.4c0.3-1.2-0.5-2.5-1.8-2.7
		c-1.3-0.2-2.5,0.6-2.7,1.8C54.8,36.5,54.8,37.1,54.8,37.6z M55,47c-0.7-1-1.3-2-1.9-2.9c-1,0.7-1.9,1.3-2.9,1.9
		c0.6,0.9,1.1,1.6,1.5,2.4c0.3,0.5,0.5,0.4,0.9,0.2C53.3,48.1,54.1,47.6,55,47z"/>
</g>
</svg>
