<?xml version="1.0" encoding="utf-8"?>
<!-- Generator: Adobe Illustrator 22.0.1, SVG Export Plug-In . SVG Version: 6.00 Build 0)  -->
<svg version="1.1" id="Layer_1" xmlns="http://www.w3.org/2000/svg" xmlns:xlink="http://www.w3.org/1999/xlink" x="0px" y="0px"
	 viewBox="0 0 81 81" style="enable-background:new 0 0 81 81;" xml:space="preserve">
<style type="text/css">
	.st0{fill:#64BBE1;}
	.st1{fill:#F6CC19;stroke:#FFFFFF;stroke-width:0.25;stroke-linecap:round;stroke-linejoin:round;stroke-miterlimit:10;}
	.st2{fill:none;stroke:#FFFFFF;stroke-width:0.25;stroke-linecap:round;stroke-linejoin:round;stroke-miterlimit:10;}
	.st3{fill:none;stroke:#FFFFFF;stroke-width:0.25;stroke-miterlimit:10;}
	.st4{fill:#FFFFFF;}
</style>
<circle class="st0" cx="40.5" cy="40.5" r="40.5"/>
<g>
	<path class="st4" d="M30.2,36.2c0-6.4,0-12.7,0-19.1c0-0.9,0.2-1.1,1.1-1.1c8.3,0,16.7,0,25,0c0.9,0,1.1,0.3,1.1,1.2
		c0,8.5,0,17,0,25.5c0,0.4,0.1,0.6,0.4,0.7c1.3,0.7,2.6,1.5,3.9,2.3c0.4,0.3,0.6,0.6,0.6,1.1c0,2.7,0,5.3,0,8c0,0.4,0.1,0.6,0.4,0.9
		c0.9,0.8,1.7,1.7,2.6,2.5c0.5,0.5,0.5,0.9,0,1.4c-2.1,2.1-4.2,4.2-6.3,6.3c-0.5,0.5-0.8,0.5-1.4,0.1c-3.5-2.7-6.7-5.6-10-8.6
		c-0.8-0.7-1.6-1.1-2.7-1c-4.5,0.1-9,0-13.5,0c-1,0-1.2-0.2-1.2-1.2C30.2,48.9,30.2,42.5,30.2,36.2z M55.7,54.7c0-1.6,0-3.2,0-4.8
		c0-0.3-0.1-0.5-0.4-0.7c-1.5-0.8-3.1-1.7-4.6-2.5c-1.2-0.7-1.8-2.2-1.5-3.5c0.5-2,2.7-3,4.5-2.1c0.6,0.3,1.2,0.7,1.8,1
		c0-8.2,0-16.3,0-24.5c-8,0-15.9,0-23.9,0c0,12.4,0,24.7,0,37.1C39.8,54.7,47.7,54.7,55.7,54.7z M54.1,61.1c2.2-1.9,4.3-3.8,6.4-5.7
		c0.1-0.1,0.2-0.3,0.2-0.5c0-2.2,0-4.5,0-6.7c0-0.9-0.2-1.4-1-1.8c-2.2-1.2-4.3-2.5-6.4-3.7c-0.6-0.4-1.3-0.3-1.8,0.1
		c-0.8,0.8-0.7,2,0.3,2.5c1.7,0.9,3.3,1.9,5,2.8c0.5,0.3,0.7,0.6,0.7,1.1c0,2,0,4.1,0,6.1c0,0.8-0.3,1.1-1.1,1.1c-2.3,0-4.6,0-7,0
		c-0.1,0-0.3,0-0.5,0C50.6,58,52.3,59.6,54.1,61.1z M63.5,58.9c-0.7-0.7-1.4-1.4-2.1-2.1c-2,1.8-4,3.6-6.1,5.4
		c0.9,0.8,1.8,1.5,2.7,2.2C59.9,62.5,61.8,60.7,63.5,58.9z"/>
	<path class="st4" d="M16.1,34.1c0-0.6,0-1.2,0-1.8c0.1-2.5,2.1-4.6,4.4-4.8c2.7-0.2,5,1.6,5.4,4.1c0.1,0.7,0.1,1.4,0.1,2.2
		c0,0.2,0,0.3,0.3,0.4c0.4,0.1,0.5,0.5,0.5,0.9c0,0.7,0,1.3,0,2c0,1.7,0,3.4,0,5.2c0,1.5-0.9,2.6-2.5,2.6c-2.3,0.1-4.6,0-6.8,0
		c-1.1,0-2.1-1-2.2-2.1c0-0.2,0-0.4,0-0.5c0-2.3,0-4.7,0-7C15.3,34.5,15.4,34.4,16.1,34.1z M17,35.8c0,0.1,0,0.2,0,0.2
		c0,2.1,0,4.1,0,6.2c0,0.7,0.3,1,1,1c2.1,0,4.1,0,6.2,0c0.8,0,1.1-0.3,1.1-1.1c0-2,0-3.9,0-5.9c0-0.1,0-0.3,0-0.4
		C22.4,35.8,19.7,35.8,17,35.8z M17.8,34.1c2.2,0,4.4,0,6.6,0c0-0.6,0-1.2,0-1.9c-0.1-1.5-1.1-2.7-2.6-3c-1.4-0.3-2.9,0.4-3.6,1.6
		C17.6,31.9,17.8,33,17.8,34.1z"/>
	<path class="st4" d="M65.4,22c-0.4,0.4-0.8,0.8-1.2,1.2c-0.3-0.3-0.6-0.7-0.9-1c0,0-0.1,0-0.1,0.1c0,3.4,0,6.8,0,10.2
		c-0.6,0-1.1,0-1.7,0c0-3.4,0-6.8,0-10.3c-0.4,0.4-0.7,0.7-1,1c-0.5-0.4-0.8-0.8-1.3-1.3c0.3-0.3,0.6-0.5,0.9-0.8
		c0.5-0.5,1-1,1.5-1.5c0.4-0.3,0.8-0.4,1.2,0C63.7,20.3,64.6,21.2,65.4,22z"/>
	<path class="st4" d="M61.6,34.2c0.5,0,1,0,1.6,0c0,0.5,0,1,0,1.6c-0.5,0-1,0-1.6,0C61.6,35.3,61.6,34.7,61.6,34.2z"/>
	<path class="st4" d="M61.6,40.8c0.5,0,1.1,0,1.6,0c0,0.5,0,1.1,0,1.6c-0.5,0-1.1,0-1.6,0C61.6,41.8,61.6,41.3,61.6,40.8z"/>
	<path class="st4" d="M21.1,46.6c0,0.5,0,1.1,0,1.6c-0.5,0-1.1,0-1.6,0c0-0.5,0-1.1,0-1.6C20,46.6,20.5,46.6,21.1,46.6z"/>
	<path class="st4" d="M19.5,51.5c0-0.6,0-1.1,0-1.6c0.5,0,1,0,1.6,0c0,0.5,0,1.1,0,1.6C20.5,51.5,20,51.5,19.5,51.5z"/>
	<path class="st4" d="M22.7,51.5c0-0.6,0-1.1,0-1.6c0.5,0,1.1,0,1.6,0c0,0.5,0,1.1,0,1.6C23.8,51.5,23.3,51.5,22.7,51.5z"/>
	<path class="st4" d="M21.9,24.3c0,0.5,0,1.1,0,1.6c-0.5,0-1,0-1.6,0c0-0.5,0-1,0-1.6C20.8,24.3,21.3,24.3,21.9,24.3z"/>
	<path class="st4" d="M63.2,39.1c-0.5,0-1.1,0-1.6,0c0-0.5,0-1,0-1.6c0.5,0,1,0,1.6,0C63.2,38,63.2,38.5,63.2,39.1z"/>
	<path class="st4" d="M26.9,22.6c0-0.5,0-1.1,0-1.6c0.5,0,1,0,1.6,0c0,0.5,0,1,0,1.6C27.9,22.6,27.4,22.6,26.9,22.6z"/>
	<path class="st4" d="M25.2,22.6c-0.5,0-1.1,0-1.6,0c0-0.5,0-1,0-1.6c0.5,0,1,0,1.6,0C25.2,21.5,25.2,22,25.2,22.6z"/>
	<path class="st4" d="M27.7,49.8c0,0.6,0,1.1,0,1.6c-0.5,0-1,0-1.6,0c0-0.5,0-1.1,0-1.6C26.6,49.8,27.1,49.8,27.7,49.8z"/>
	<path class="st4" d="M20.3,22.6c0-0.5,0-1.1,0-1.6c0.5,0,1,0,1.6,0c0,0.5,0,1,0,1.6C21.3,22.6,20.8,22.6,20.3,22.6z"/>
	<path class="st4" d="M34.3,35.8c0-0.6,0-1.1,0-1.6c6.3,0,12.6,0,18.9,0c0,0.5,0,1.1,0,1.6C46.9,35.8,40.6,35.8,34.3,35.8z"/>
	<path class="st4" d="M34.3,50.6c0-0.5,0-1.1,0-1.6c6,0,12.1,0,18.1,0c0,0.5,0,1,0,1.6C46.4,50.6,40.4,50.6,34.3,50.6z"/>
	<path class="st4" d="M42.5,21c0.6,0,1.1,0,1.6,0c0,0,0.1,0,0,0.1c-0.1,0.6,0.1,1,0.7,1.3c0.7,0.4,1,1.1,1,1.9c-0.5,0-1.1,0-1.6,0
		c-0.1-0.5-0.3-0.8-0.8-0.8c-0.3,0-0.6,0.1-0.8,0.6c0.9,0.9,1.7,1.7,2.6,2.6c0.8,0.8,0.8,1.6,0.1,2.5c-0.2,0.2-0.4,0.4-0.6,0.5
		c-0.5,0.2-0.6,0.5-0.5,0.9c0,0.1,0,0.2,0,0.3c-0.5,0-1,0-1.6,0c0,0,0,0,0-0.1c0.1-0.6-0.1-0.9-0.7-1.3c-0.7-0.4-1-1.1-1-2
		c0.5,0,1,0,1.4,0c0.1,0,0.2,0.2,0.2,0.3c0.2,0.5,0.8,0.7,1.2,0.4c0.3-0.2,0.4-0.3,0.1-0.6c-0.9-0.9-1.7-1.8-2.6-2.6
		c-0.4-0.4-0.5-0.7-0.4-1.2c0.2-0.7,0.6-1.3,1.2-1.7c0.3-0.2,0.4-0.3,0.4-0.7C42.5,21.3,42.5,21.1,42.5,21z"/>
	<path class="st4" d="M34.3,40.7c0-0.6,0-1.1,0-1.6c4.9,0,9.9,0,14.8,0c0,0.5,0,1.1,0,1.6C44.2,40.7,39.3,40.7,34.3,40.7z"/>
	<path class="st4" d="M34.3,45.7c0-0.5,0-1.1,0-1.6c4.4,0,8.8,0,13.2,0c0,0.5,0,1,0,1.6C43.1,45.7,38.7,45.7,34.3,45.7z"/>
	<path class="st4" d="M20.3,39.1c-0.3,0-0.5,0-0.8,0c0-0.5,0-1,0-1.6c1.1,0,2.1,0,3.2,0c0,0.5,0,1,0,1.6c-0.3,0-0.5,0-0.8,0
		c0,0.8,0,1.6,0,2.4c-0.6,0-1.1,0-1.6,0C20.3,40.7,20.3,39.9,20.3,39.1z"/>
</g>
</svg>
