<?xml version="1.0" encoding="utf-8"?>
<!-- Generator: Adobe Illustrator 22.0.1, SVG Export Plug-In . SVG Version: 6.00 Build 0)  -->
<svg version="1.1" id="Layer_1" xmlns="http://www.w3.org/2000/svg" xmlns:xlink="http://www.w3.org/1999/xlink" x="0px" y="0px"
	 viewBox="0 0 81 81" style="enable-background:new 0 0 81 81;" xml:space="preserve">
<style type="text/css">
	.st0{fill:#64BBE1;}
	.st1{clip-path:url(#SVGID_2_);fill:#FFFFFF;}
</style>
<circle class="st0" cx="40.5" cy="40.5" r="40.5"/>
<g>
	<g>
		<defs>
			<path id="SVGID_1_" d="M37.2,14.3L18.7,24.8c-1.5,0.9-2.8,3-2.8,4.7l0,20.8c0,1.7,1.3,3.9,2.8,4.7l11.1,6.2l24-13.1
				c4.2-2.3,5.7-7.5,3.3-11.5c-1.5-2.7-4.5-4.3-7.6-4.3c-1.5,0-2.9,0.4-4.2,1.1l-11.2,6.1l0,0l-1,0.5l1.9,3.2l-8.5-2.2l2.5-8.2
				l1.9,3.2L43,29.5c1.6-0.9,3.8-1.4,3.9-1.4c0.9-0.2,1.8-0.3,2.7-0.3c4.8,0,9.3,2.5,11.7,6.6c1.7,3,2.2,6.5,1.2,9.9
				c-1,3.4-3.2,6.1-6.3,7.8L34.6,64l2.7,1.5c1.5,0.9,4.1,0.9,5.6,0L61.5,55c1.5-0.9,2.8-3,2.8-4.7l0-20.8c0-1.7-1.3-3.9-2.8-4.7
				l-11.5-6.5L26.4,31.2c-4.2,2.3-5.7,7.5-3.3,11.5c1.5,2.7,4.5,4.3,7.6,4.3c1.5,0,2.9-0.4,4.2-1.1l12.2-6.7l-1.9-3.2l8.5,2.2
				l-2.5,8.2l-1.9-3.2l-12.3,6.7c-0.1,0.1-0.2,0.1-0.3,0.2c-0.1,0-1.7,0.8-3.5,1.2c-0.9,0.2-1.7,0.3-2.7,0.3
				c-4.8,0-9.3-2.5-11.7-6.6c-1.7-3-2.2-6.5-1.2-9.9c1-3.4,3.2-6.1,6.3-7.8l21.1-11.6l-2.3-1.3c-0.8-0.4-1.8-0.6-2.8-0.6
				C39,13.7,38,13.9,37.2,14.3"/>
		</defs>
		<use xlink:href="#SVGID_1_"  style="overflow:visible;fill:#FFFFFF;"/>
		<clipPath id="SVGID_2_">
			<use xlink:href="#SVGID_1_"  style="overflow:visible;"/>
		</clipPath>
		<rect x="15.9" y="13.7" class="st1" width="48.4" height="52.7"/>
		<path class="st1" d="M-23.5,39.6L-23.5,39.6l-1,0.5l1.9,3.2l-8.5-2.2l2.5-8.2l1.9,3.2l12.1-6.6c1.6-0.9,3.8-1.4,3.9-1.4
			c0.9-0.2,1.8-0.3,2.7-0.3c4.8,0,9.3,2.5,11.7,6.6c1.7,3,2.2,6.5,1.2,9.9c-1,3.4-3.2,6.1-6.3,7.8L-23,64"/>
		<path class="st1" d="M-27.8,61.3l24-13.1c4.2-2.3,5.7-7.5,3.3-11.5c-1.5-2.7-4.5-4.3-7.6-4.3c-1.5,0-2.9,0.4-4.2,1.1l-11.2,6.1"/>
	</g>
</g>
</svg>
