<?xml version="1.0" encoding="utf-8"?>
<!-- Generator: Adobe Illustrator 22.0.1, SVG Export Plug-In . SVG Version: 6.00 Build 0)  -->
<svg version="1.1" id="Layer_1" xmlns="http://www.w3.org/2000/svg" xmlns:xlink="http://www.w3.org/1999/xlink" x="0px" y="0px"
	 viewBox="0 0 81 81" style="enable-background:new 0 0 81 81;" xml:space="preserve">
<style type="text/css">
	.st0{fill:#64BBE1;}
	.st1{fill:#FFFFFF;}
	.st2{fill:#F6CC19;stroke:#FFFFFF;stroke-width:0.25;stroke-linecap:round;stroke-linejoin:round;stroke-miterlimit:10;}
	.st3{fill:none;stroke:#FFFFFF;stroke-width:0.25;stroke-linecap:round;stroke-linejoin:round;stroke-miterlimit:10;}
	.st4{fill:none;stroke:#FFFFFF;stroke-width:0.25;stroke-miterlimit:10;}
</style>
<circle class="st0" cx="40.5" cy="40.5" r="40.5"/>
<g id="EIO9vN.tif">
</g>
<g>
	<path class="st1" d="M50.1,57.1c0-0.2,0-0.4,0-0.6c0-1.7,0-3.3,0-5c0-1.1,0.3-1.4,1.4-1.4c1.7,0,3.5,0,5.2,0c0.5,0,0.6-0.1,0.6-0.6
		c0-4.9,0-9.7,0-14.6c0-0.7,0.2-1,0.7-1.2c0.6-0.2,1.2,0.2,1.2,0.8c0,0.2,0,0.4,0,0.6c0,4.8,0,9.5,0,14.3c0,0.7,0,0.7,0.7,0.7
		c1.7,0,3.5,0,5.2,0c0.9,0,1.3,0.4,1.3,1.3c0,3.2,0,6.5,0,9.7c0,0.8-0.4,1.2-1.2,1.3c-0.9,0-1.9,0-2.8,0c-0.7,0-1.2-0.5-1.2-1.1
		c0-0.6,0.5-1,1.2-1c0.5,0,1,0,1.4,0c0.3,0,0.5-0.1,0.5-0.4c0-2.5,0-4.9,0-7.4c0-0.3-0.1-0.4-0.4-0.4c-3.8,0-7.6,0-11.5,0
		c-0.3,0-0.4,0.1-0.4,0.4c0,2.5,0,4.9,0,7.4c0,0.4,0.2,0.4,0.5,0.4c1.8,0,3.5,0,5.3,0c1,0,1.3,0.3,1.3,1.3c0,0.6,0,1.3,0,1.9
		c0,0.4,0.1,0.5,0.5,0.5c0.7,0,1.4,0,2.1,0c0.7,0,1.1,0.4,1.1,1c0,0.6-0.4,1-1.1,1c-2.4,0-4.8,0-7.2,0c-0.7,0-1.1-0.4-1.1-1
		c0-0.6,0.4-1,1.1-1c0.7,0,1.4,0,2.2,0c0.3,0,0.5-0.1,0.5-0.4c0-1.2,0-1.2-1.2-1.2c-1.5,0-3.1,0-4.6,0c-1,0-1.4-0.4-1.4-1.4
		c0-0.4,0-0.9,0-1.3c0-0.4-0.1-0.6-0.5-0.6c-2,0-3.9,0-5.9,0c-2.6,0-5.2,0-7.8,0c-0.3,0-0.6,0-0.8-0.1c-0.6-0.1-0.8-0.5-0.8-1.1
		c0-0.5,0.4-0.9,1-0.9c0.1,0,0.3,0,0.4,0c4.6,0,9.3,0,13.9,0C49.6,57.1,49.8,57.1,50.1,57.1z"/>
	<path class="st1" d="M22.9,62.4c-0.2,0-0.4,0-0.6,0c-1.7,0-3.4,0-5.1,0c-1,0-1.4-0.4-1.5-1.4c0-3.2,0-6.3,0-9.5
		c0-1,0.3-1.3,1.4-1.3c1.7,0,3.5,0,5.2,0c0.4,0,0.5-0.1,0.5-0.6c0-4.8,0-9.7,0-14.5c0-0.2,0-0.5,0.1-0.7c0.1-0.4,0.6-0.7,1-0.7
		c0.4,0,0.8,0.4,0.9,0.8c0,0.2,0,0.5,0,0.7c0,4.8,0,9.5,0,14.3c0,0.5,0.1,0.7,0.6,0.6c1.7,0,3.5,0,5.2,0c1,0,1.3,0.3,1.3,1.3
		c0,3.2,0,6.4,0,9.6c0,0.9-0.4,1.3-1.3,1.3c-0.8,0-1.7,0-2.5,0c-0.3,0-0.6-0.1-0.9-0.2C27,62,26.9,61.5,27,61.1
		c0.1-0.5,0.5-0.7,1-0.7c0.6,0,1.1,0,1.7,0c0.3,0,0.4-0.1,0.4-0.4c0-2.5,0-4.9,0-7.4c0-0.3-0.1-0.4-0.4-0.4c-3.8,0-7.6,0-11.5,0
		c-0.3,0-0.4,0.1-0.4,0.4c0,2.5,0,4.9,0,7.4c0,0.4,0.2,0.4,0.5,0.4c1.8,0,3.6,0,5.4,0c1,0,1.3,0.3,1.3,1.3c0,0.6,0,1.3,0,1.9
		c0,0.4,0.1,0.5,0.5,0.5c0.7,0,1.4,0,2.1,0c0.7,0,1.1,0.4,1.1,1c0,0.6-0.5,1-1.1,1c-2.4,0-4.8,0-7.2,0c-0.7,0-1.1-0.4-1.1-1
		c0-0.6,0.4-1,1.1-1c0.7,0,1.4,0,2.2,0c0.3,0,0.4-0.1,0.4-0.4C22.9,63.3,22.9,62.9,22.9,62.4z"/>
	<path class="st1" d="M59.3,28.1c0,0.4,0,0.8,0,1.2c0,0.3,0.1,0.4,0.4,0.4c0.8,0,1.5,0,2.3,0c0.4,0,0.8,0.2,0.9,0.6
		c0.1,0.3,0,0.8-0.2,1c-0.1,0.2-0.5,0.4-0.8,0.4c-2.4,0-4.8,0-7.2,0c-0.6,0-1.1-0.4-1.1-1c0-0.5,0.4-1,1-1c0.7,0,1.4,0,2.1,0
		c0.5,0,0.6-0.1,0.6-0.6c0-0.7,0-1.3,0-2c0-0.7,0.4-1.1,1.1-1.1c1.8,0,3.7,0,5.5,0c0.5,0,0.6-0.1,0.6-0.6c0-2.4,0-4.7,0-7.1
		c0-0.4-0.1-0.6-0.6-0.6c-3.7,0-7.5,0-11.2,0c-0.4,0-0.6,0.1-0.6,0.5c0,2.4,0,4.8,0,7.2c0,0.4,0.1,0.6,0.5,0.6c0.5,0,1,0,1.4,0
		c0.7,0,1.1,0.4,1.1,0.9c0,0.5-0.4,1.1-1,1.1c-1,0-2,0-3,0c-0.7,0-1-0.5-1.1-1.1c0-0.5,0-1,0-1.5c0-0.4-0.1-0.6-0.6-0.6
		c-3.7,0-7.4,0-11.1,0c-1.1,0-2.1,0-3.2,0c-0.5,0-0.8-0.2-1-0.7c-0.1-0.4-0.1-0.9,0.3-1.1c0.3-0.1,0.6-0.2,0.9-0.2
		c4.6,0,9.3,0,13.9,0c0.5,0,0.7-0.2,0.7-0.7c0-1.7,0-3.4,0-5c0-0.9,0.3-1.2,1.2-1.2c4.6,0,9.3,0,13.9,0c0.8,0,1.2,0.4,1.2,1.2
		c0,3.3,0,6.5,0,9.8c0,0.9-0.4,1.3-1.3,1.3c-1.8,0-3.6,0-5.4,0C59.6,28.1,59.5,28.1,59.3,28.1z"/>
	<path class="st1" d="M25,28c0,0.6,0,1.1,0,1.7c0.9,0,1.8,0,2.7,0c0.8,0,1.3,0.9,0.8,1.5c-0.2,0.2-0.5,0.4-0.8,0.4
		c-2.5,0-4.9,0-7.4,0c-0.6,0-1-0.4-1-1c0-0.6,0.4-1,1-1c0.9,0,1.7,0,2.7,0c0-0.5,0-0.9,0-1.3c0-0.4,0-0.8,0-1.2
		c0-0.8,0.4-1.1,1.1-1.1c1.8,0,3.6,0,5.4,0c0.2,0,0.4,0,0.6,0c0-2.8,0-5.5,0-8.2c-4.1,0-8.1,0-12.2,0c0,2.7,0,5.4,0,8.2
		c0.7,0,1.3,0,1.9,0c0.7,0,1.1,0.4,1.2,1c0,0.6-0.4,1-1.1,1.1c-1,0-1.9,0-2.9,0c-0.8,0-1.1-0.4-1.1-1.2c0-3.3,0-6.7,0-10
		c0-0.7,0.3-1,1-1.1c0.2,0,0.3,0,0.5,0c4.5,0,8.9,0,13.4,0c1.2,0,1.5,0.3,1.5,1.5c0,3.1,0,6.3,0,9.4c0,1-0.3,1.3-1.4,1.4
		c-1.7,0-3.5,0-5.2,0C25.4,28,25.2,28,25,28z"/>
	<path class="st1" d="M57.5,22.1c0.8-0.8,1.6-1.6,2.3-2.3c0.2-0.2,0.4-0.4,0.6-0.4c0.4-0.1,0.8,0,1.1,0.4c0.2,0.4,0.2,0.9-0.2,1.3
		c-0.8,0.9-1.7,1.7-2.5,2.5c-0.2,0.2-0.4,0.4-0.6,0.6c-0.4,0.4-1,0.4-1.4,0c-0.6-0.6-1.3-1.2-1.8-1.9c-0.4-0.4-0.3-1,0.1-1.4
		c0.4-0.3,1-0.4,1.3,0C56.8,21.3,57.1,21.7,57.5,22.1z"/>
	<path class="st1" d="M57.5,56.5c0.9-0.9,1.7-1.6,2.5-2.4c0.4-0.4,0.9-0.4,1.3-0.2c0.4,0.2,0.6,0.6,0.5,1.1
		c-0.1,0.2-0.2,0.5-0.4,0.6c-1,1-2,2-2.9,2.9c-0.5,0.5-1,0.5-1.6,0c-0.6-0.6-1.1-1.1-1.7-1.7c-0.4-0.4-0.4-1,0-1.4
		c0.4-0.4,1-0.4,1.4,0c0.2,0.2,0.4,0.4,0.5,0.5C57.2,56.1,57.3,56.3,57.5,56.5z"/>
	<path class="st1" d="M23.2,22.1c0.9-0.8,1.6-1.6,2.4-2.3c0.2-0.2,0.5-0.3,0.8-0.4c0.4-0.1,0.7,0.1,0.9,0.5c0.2,0.4,0.2,0.8-0.1,1.1
		c-1.1,1.1-2.2,2.3-3.4,3.4c-0.4,0.3-0.9,0.3-1.3-0.1c-0.6-0.6-1.2-1.2-1.8-1.8c-0.4-0.4-0.4-1,0-1.4c0.4-0.4,1-0.4,1.4-0.1
		C22.5,21.3,22.8,21.7,23.2,22.1z"/>
	<path class="st1" d="M23.2,56.5c0.8-0.8,1.6-1.6,2.3-2.3c0.1-0.1,0.2-0.2,0.4-0.3c0.4-0.3,1-0.2,1.3,0.1c0.3,0.4,0.4,0.9,0.1,1.3
		c-0.1,0.1-0.2,0.3-0.3,0.4c-0.9,0.9-1.9,1.9-2.8,2.8c-0.5,0.5-1,0.5-1.5,0c-0.6-0.6-1.1-1.1-1.7-1.7c-0.4-0.4-0.4-1,0-1.4
		c0.4-0.4,1-0.4,1.4,0c0.2,0.2,0.4,0.3,0.5,0.5C22.9,56.1,23,56.3,23.2,56.5z"/>
</g>
<g>
	<g>
		<path class="st2" d="M50.2,33.1c-0.7-0.7-1.3-1.4-1.9-2.1c-0.5,0.4-0.9,0.6-1.3,0.9c-0.5-0.3-1-0.6-1.5-0.9c0-0.5,0.1-1,0.1-1.6
			c-0.9-0.2-1.8-0.5-2.7-0.7c-0.3,0.5-0.5,1-0.7,1.4c-0.6,0-1.2,0-1.7,0c-0.2-0.4-0.4-0.9-0.7-1.4c-0.9,0.3-1.8,0.5-2.7,0.7
			c0.1,0.6,0.1,1.1,0.2,1.6c-0.5,0.3-1,0.6-1.5,0.9c-0.4-0.3-0.8-0.6-1.3-0.9c-0.7,0.7-1.3,1.3-2,1.9c0.4,0.5,0.7,0.9,0.9,1.3
			c-0.3,0.5-0.6,1-0.9,1.5c-0.5,0-1-0.1-1.6-0.1c-0.2,0.9-0.5,1.8-0.7,2.7c0.6,0.3,1,0.5,1.4,0.7c0,0.6,0,1.2,0,1.7
			c-0.4,0.2-0.9,0.4-1.4,0.7c0.2,0.9,0.5,1.8,0.7,2.7c0.6,0,1.1-0.1,1.6-0.1c0.3,0.5,0.6,1,0.9,1.5c-0.3,0.4-0.6,0.8-0.9,1.3
			c0.7,0.7,1.3,1.4,1.9,2c0.6-0.4,1-0.7,1.4-0.9c0.5,0.3,1,0.6,1.5,0.9c-0.1,0.5-0.1,1-0.2,1.6c0.9,0.2,1.8,0.5,2.7,0.7
			c0.3-0.6,0.5-1,0.7-1.4c0.6,0,1.1,0,1.7,0c0.2,0.5,0.4,0.9,0.7,1.5c0.9-0.3,1.8-0.5,2.7-0.7c-0.1-0.6-0.1-1.1-0.2-1.6
			c0.5-0.3,1-0.6,1.5-0.9c0.4,0.3,0.8,0.6,1.3,0.9c0.7-0.7,1.3-1.3,2-1.9c-0.4-0.6-0.7-1-1-1.4c0.3-0.5,0.6-1,0.9-1.5
			c0.5,0,1,0.1,1.6,0.1c0.2-0.9,0.5-1.8,0.7-2.7c-0.6-0.3-1-0.5-1.4-0.6c0-0.6,0-1.2,0-1.8c0.5-0.2,0.9-0.4,1.4-0.7
			c-0.2-0.9-0.5-1.8-0.7-2.7c-0.6,0.1-1.1,0.1-1.6,0.1c-0.3-0.5-0.6-1-0.9-1.5C49.6,33.9,49.9,33.5,50.2,33.1z"/>
	</g>
	<g>
		<g>
			<path class="st3" d="M40.1,32.1c-2.1,0.3-3.8,1.4-5.1,3"/>
			<path class="st3" d="M40.1,31.3c-2.4,0.3-4.5,1.6-5.8,3.5"/>
			<path class="st3" d="M42.5,32.1c-0.3,0-0.4-0.1-0.7-0.1"/>
			<path class="st3" d="M44.4,32.6c-0.1-0.1-0.3-0.1-0.4-0.2"/>
			<path class="st3" d="M48.9,37.7c-0.5-1.6-1.4-3-2.6-4"/>
			<path class="st3" d="M45.9,46.3c2-1.4,3.4-3.8,3.4-6.5c0-0.1,0-0.2,0-0.4"/>
			<path class="st3" d="M39.3,47.5c0.7,0.2,1.3,0.3,2,0.3c1,0,1.9-0.2,2.8-0.5"/>
			<path class="st3" d="M33.5,40.8c0.3,2.6,1.9,4.8,4.1,6"/>
			<path class="st3" d="M34.1,36.8c-0.3,0.7-0.5,1.5-0.6,2.4"/>
			<path class="st3" d="M42.5,31.2c-0.2,0-0.5,0-0.7-0.1"/>
			<path class="st3" d="M45.6,32.2c-0.4-0.2-0.7-0.3-1.2-0.5"/>
			<path class="st3" d="M49.7,37.6c-0.4-1.5-1.2-2.8-2.2-3.9"/>
			<path class="st3" d="M45.9,47.2c2.5-1.6,4.1-4.3,4.1-7.4c0-0.1,0-0.2,0-0.3"/>
			<path class="st3" d="M39.3,48.3c0.7,0.2,1.3,0.2,2,0.2c1,0,1.9-0.2,2.8-0.5"/>
			<path class="st3" d="M32.7,40.9c0.3,3,2.2,5.5,4.8,6.8"/>
			<path class="st3" d="M33.2,36.8c-0.3,0.8-0.5,1.6-0.5,2.4"/>
			<line class="st3" x1="45.5" y1="43" x2="44.1" y2="43"/>
			<line class="st3" x1="46.4" y1="43" x2="46" y2="43"/>
			<line class="st3" x1="43.1" y1="35.9" x2="44.5" y2="35.9"/>
			<line class="st3" x1="42.2" y1="35.9" x2="42.6" y2="35.9"/>
			<line class="st3" x1="43.3" y1="45.7" x2="43.3" y2="43.2"/>
			<line class="st3" x1="38.7" y1="43.1" x2="38.7" y2="44.6"/>
			<line class="st3" x1="37.1" y1="37.4" x2="37.1" y2="36"/>
			<line class="st3" x1="43.9" y1="36.7" x2="40.1" y2="36.7"/>
			<line class="st3" x1="44.8" y1="36.7" x2="44.4" y2="36.7"/>
			<line class="st3" x1="37.7" y1="36.9" x2="37.7" y2="34.4"/>
			<circle class="st4" cx="36.6" cy="43.1" r="0.3"/>
			<circle class="st4" cx="48" cy="42.2" r="0.3"/>
			<circle class="st4" cx="39.1" cy="35.7" r="0.3"/>
			<line class="st3" x1="39.7" y1="45.6" x2="39.7" y2="44.1"/>
		</g>
	</g>
	<g>
		<path class="st1" d="M34.6,42l0.7-4.4h0.8l1.1,2.6l1.1-2.6h0.8l0.7,4.4h-1l-0.3-2.6L37.4,42h-0.4L36,39.4L35.6,42H34.6z"/>
		<path class="st1" d="M43.1,38.4h-1.4v0.9H43v0.9h-1.3V42h-1v-4.4h2.4V38.4z"/>
		<path class="st1" d="M45.9,39.6h2.2v0c0,0.5-0.2,1.3-0.7,1.9c-0.5,0.5-1,0.6-1.6,0.6c-0.5,0-1.1-0.1-1.6-0.6
			c-0.3-0.3-0.6-0.8-0.6-1.7c0-0.7,0.3-1.3,0.6-1.7c0.5-0.6,1.2-0.6,1.7-0.6c0.4,0,0.8,0.1,1.2,0.3c0.3,0.2,0.6,0.5,0.7,0.8L47,39.1
			c-0.1-0.2-0.2-0.3-0.4-0.5c-0.2-0.1-0.4-0.2-0.7-0.2c-0.4,0-0.7,0.1-0.9,0.4c-0.2,0.3-0.4,0.6-0.4,1c0,0.5,0.2,0.8,0.4,1
			c0.3,0.3,0.6,0.3,0.9,0.3c0.4,0,0.7-0.2,0.8-0.2c0,0,0.2-0.2,0.3-0.5h-1.1V39.6z"/>
	</g>
	<g>
		<circle class="st1" cx="36.2" cy="36.2" r="0.3"/>
		<circle class="st1" cx="39.5" cy="33.9" r="0.3"/>
		<circle class="st1" cx="43.7" cy="34.1" r="0.3"/>
		<circle class="st1" cx="45.9" cy="35.4" r="0.3"/>
		<circle class="st1" cx="46.9" cy="43.5" r="0.3"/>
		<circle class="st1" cx="44.1" cy="45.8" r="0.3"/>
		<circle class="st1" cx="38" cy="45.5" r="0.3"/>
	</g>
</g>
</svg>
