<?xml version="1.0" encoding="utf-8"?>
<!-- Generator: Adobe Illustrator 22.0.1, SVG Export Plug-In . SVG Version: 6.00 Build 0)  -->
<svg version="1.1" id="Layer_1" xmlns="http://www.w3.org/2000/svg" xmlns:xlink="http://www.w3.org/1999/xlink" x="0px" y="0px"
	 viewBox="0 0 81 81" style="enable-background:new 0 0 81 81;" xml:space="preserve">
<style type="text/css">
	.st0{fill:#64BBE1;}
	.st1{fill:#F6CC19;stroke:#FFFFFF;stroke-width:0.25;stroke-linecap:round;stroke-linejoin:round;stroke-miterlimit:10;}
	.st2{fill:none;stroke:#FFFFFF;stroke-width:0.25;stroke-linecap:round;stroke-linejoin:round;stroke-miterlimit:10;}
	.st3{fill:none;stroke:#FFFFFF;stroke-width:0.25;stroke-miterlimit:10;}
	.st4{fill:#FFFFFF;}
	.st5{clip-path:url(#SVGID_2_);fill:#FFFFFF;}
</style>
<circle class="st0" cx="40.5" cy="40.5" r="40.5"/>
<g>
	<g>
		<path class="st1" d="M-61.7,15.5c-0.7-0.7-1.3-1.4-1.9-2.1c-0.5,0.4-0.9,0.6-1.3,0.9c-0.5-0.3-1-0.6-1.5-0.9c0-0.5,0.1-1,0.1-1.6
			c-0.9-0.2-1.8-0.5-2.7-0.7c-0.3,0.5-0.5,1-0.7,1.4c-0.6,0-1.2,0-1.7,0c-0.2-0.4-0.4-0.9-0.7-1.4c-0.9,0.3-1.8,0.5-2.7,0.7
			c0.1,0.6,0.1,1.1,0.2,1.6c-0.5,0.3-1,0.6-1.5,0.9c-0.4-0.3-0.8-0.6-1.3-0.9c-0.7,0.7-1.3,1.3-2,1.9c0.4,0.5,0.7,0.9,0.9,1.3
			c-0.3,0.5-0.6,1-0.9,1.5c-0.5,0-1-0.1-1.6-0.1c-0.2,0.9-0.5,1.8-0.7,2.7c0.6,0.3,1,0.5,1.4,0.7c0,0.6,0,1.2,0,1.7
			c-0.4,0.2-0.9,0.4-1.4,0.7c0.2,0.9,0.5,1.8,0.7,2.7c0.6,0,1.1-0.1,1.6-0.1c0.3,0.5,0.6,1,0.9,1.5c-0.3,0.4-0.6,0.8-0.9,1.3
			c0.7,0.7,1.3,1.4,1.9,2c0.6-0.4,1-0.7,1.4-0.9c0.5,0.3,1,0.6,1.5,0.9c-0.1,0.5-0.1,1-0.2,1.6c0.9,0.2,1.8,0.5,2.7,0.7
			c0.3-0.6,0.5-1,0.7-1.4c0.6,0,1.1,0,1.7,0c0.2,0.5,0.4,0.9,0.7,1.5c0.9-0.3,1.8-0.5,2.7-0.7c-0.1-0.6-0.1-1.1-0.2-1.6
			c0.5-0.3,1-0.6,1.5-0.9c0.4,0.3,0.8,0.6,1.3,0.9c0.7-0.7,1.3-1.3,2-1.9c-0.4-0.6-0.7-1-1-1.4c0.3-0.5,0.6-1,0.9-1.5
			c0.5,0,1,0.1,1.6,0.1c0.2-0.9,0.5-1.8,0.7-2.7c-0.6-0.3-1-0.5-1.4-0.6c0-0.6,0-1.2,0-1.8c0.5-0.2,0.9-0.4,1.4-0.7
			c-0.2-0.9-0.5-1.8-0.7-2.7c-0.6,0.1-1.1,0.1-1.6,0.1c-0.3-0.5-0.6-1-0.9-1.5C-62.3,16.3-62,15.9-61.7,15.5z"/>
	</g>
	<g>
		<g>
			<path class="st2" d="M-71.8,14.5c-2.1,0.3-3.9,1.4-5.1,3"/>
			<path class="st2" d="M-71.8,13.7c-2.4,0.3-4.5,1.6-5.8,3.5"/>
			<path class="st2" d="M-69.4,14.5c-0.3,0-0.4-0.1-0.7-0.1"/>
			<path class="st2" d="M-67.5,15c-0.1-0.1-0.3-0.1-0.4-0.2"/>
			<path class="st2" d="M-63,20.1c-0.5-1.6-1.4-3-2.6-4"/>
			<path class="st2" d="M-66.1,28.8c2-1.4,3.4-3.8,3.4-6.5c0-0.1,0-0.2,0-0.4"/>
			<path class="st2" d="M-72.6,30c0.7,0.2,1.3,0.3,2,0.3c1,0,1.9-0.2,2.8-0.5"/>
			<path class="st2" d="M-78.5,23.3c0.3,2.6,1.9,4.8,4.1,6"/>
			<path class="st2" d="M-77.9,19.2c-0.3,0.7-0.5,1.5-0.6,2.4"/>
			<path class="st2" d="M-69.5,13.7c-0.2,0-0.5,0-0.7-0.1"/>
			<path class="st2" d="M-66.4,14.7c-0.4-0.2-0.7-0.3-1.2-0.5"/>
			<path class="st2" d="M-62.2,20.1c-0.4-1.5-1.2-2.8-2.2-3.9"/>
			<path class="st2" d="M-66,29.7c2.5-1.6,4.2-4.3,4.1-7.4c0-0.1,0-0.2,0-0.4"/>
			<path class="st2" d="M-72.6,30.8c0.7,0.2,1.3,0.2,2,0.2c1,0,1.9-0.2,2.8-0.5"/>
			<path class="st2" d="M-79.3,23.3c0.3,3,2.2,5.5,4.8,6.8"/>
			<path class="st2" d="M-78.7,19.2c-0.3,0.8-0.5,1.6-0.5,2.4"/>
			<line class="st2" x1="-66.5" y1="25.4" x2="-67.9" y2="25.4"/>
			<line class="st2" x1="-65.5" y1="25.4" x2="-65.9" y2="25.4"/>
			<line class="st2" x1="-68.8" y1="18.4" x2="-67.4" y2="18.4"/>
			<line class="st2" x1="-69.7" y1="18.4" x2="-69.3" y2="18.4"/>
			<line class="st2" x1="-68.6" y1="28.2" x2="-68.6" y2="25.7"/>
			<line class="st2" x1="-73.2" y1="25.5" x2="-73.2" y2="27.1"/>
			<line class="st2" x1="-74.9" y1="19.8" x2="-74.9" y2="18.4"/>
			<line class="st2" x1="-68.1" y1="19.1" x2="-71.8" y2="19.1"/>
			<line class="st2" x1="-67.1" y1="19.1" x2="-67.5" y2="19.1"/>
			<line class="st2" x1="-74.3" y1="19.3" x2="-74.3" y2="16.8"/>
			<circle class="st3" cx="-75.4" cy="25.5" r="0.3"/>
			<circle class="st3" cx="-64" cy="24.6" r="0.3"/>
			<circle class="st3" cx="-72.8" cy="18.1" r="0.3"/>
			<line class="st2" x1="-72.3" y1="28.1" x2="-72.3" y2="26.6"/>
		</g>
	</g>
	<g>
		<path class="st4" d="M-77.4,24.4l0.7-4.4h0.8l1.1,2.6l1.1-2.6h0.8l0.7,4.4h-1l-0.4-2.6l-1.1,2.6h-0.4l-1.1-2.6l-0.4,2.6H-77.4z"/>
		<path class="st4" d="M-68.9,20.9h-1.4v0.9h1.3v0.9h-1.3v1.8h-1V20h2.4V20.9z"/>
		<path class="st4" d="M-66,22h2.2v0c0,0.5-0.2,1.3-0.7,1.9c-0.5,0.5-1.1,0.6-1.6,0.6c-0.5,0-1.1-0.1-1.6-0.6
			c-0.3-0.3-0.6-0.8-0.6-1.7c0-0.7,0.3-1.3,0.6-1.7c0.5-0.6,1.2-0.6,1.7-0.6c0.4,0,0.8,0.1,1.2,0.3c0.3,0.2,0.6,0.5,0.7,0.8
			l-0.9,0.5c-0.1-0.2-0.2-0.4-0.4-0.5c-0.2-0.1-0.4-0.2-0.7-0.2c-0.4,0-0.7,0.1-0.9,0.4c-0.2,0.3-0.4,0.6-0.4,1c0,0.5,0.2,0.8,0.4,1
			c0.3,0.3,0.6,0.3,0.9,0.3c0.4,0,0.7-0.2,0.8-0.2c0,0,0.2-0.2,0.3-0.5H-66V22z"/>
	</g>
	<g>
		<circle class="st4" cx="-75.7" cy="18.7" r="0.3"/>
		<circle class="st4" cx="-72.4" cy="16.4" r="0.3"/>
		<circle class="st4" cx="-68.2" cy="16.5" r="0.3"/>
		<circle class="st4" cx="-66" cy="17.9" r="0.3"/>
		<circle class="st4" cx="-65" cy="26" r="0.3"/>
		<circle class="st4" cx="-67.9" cy="28.3" r="0.3"/>
		<circle class="st4" cx="-73.9" cy="28" r="0.3"/>
	</g>
</g>
<g id="EIO9vN.tif">
</g>
<g>
	<path class="st4" d="M20.3,33.3c0,1.9,0,3.8,0,5.7c0.2,0,0.4,0,0.6,0c2.4,0,4.9,0,7.3,0c1.2,0,1.5,0.3,1.5,1.5c0,1.9,0,3.8,0,5.7
		c0,0.3,0.1,0.6,0.4,0.7c3.3,1.9,6.7,3.8,10,5.8c0.3,0.2,0.5,0.1,0.8,0c3.6-2.1,7.2-4.2,10.8-6.2c0.8-0.5,1.6-0.1,1.7,0.8
		c0.1,0.5-0.2,0.9-0.7,1.2c-2,1.1-3.9,2.2-5.9,3.4c-1.9,1.1-3.7,2.1-5.6,3.2c-0.6,0.3-1.1,0.3-1.6,0c-3.8-2.2-7.5-4.4-11.3-6.5
		c-0.6-0.3-0.8-0.8-0.8-1.4c0-1.7,0-3.5,0-5.2c0-0.2,0-0.4,0-0.7c-0.3,0-0.5,0-0.7,0c-2.4,0-4.8,0-7.3,0c-1.2,0-1.5-0.3-1.5-1.5
		c0-1.9,0-3.9,0-5.8c0-0.4-0.1-0.6-0.5-0.7c-2.1-0.7-3.5-2.5-3.6-4.7c-0.1-2.1,1.1-4.1,3-5c2.7-1.3,5.8-0.1,7,2.6
		c1.2,2.7-0.1,5.9-2.8,7C20.9,33.1,20.6,33.2,20.3,33.3z M19.2,25.1c-1.7,0-3,1.3-3,3c0,1.7,1.3,3.1,3,3.1c1.7,0,3-1.4,3-3
		C22.2,26.4,20.9,25.1,19.2,25.1z"/>
	<path class="st4" d="M62.9,47.8c3.2,1.3,4.6,3.5,4,6.2c-0.5,2.4-2.8,4.2-5.2,4.2c-2.6-0.1-4.6-1.9-5.1-4.5c-0.4-2.2,0.8-5,4-5.9
		c0-0.1,0-0.3,0-0.4c0-2,0-4.1,0-6.2c-0.2,0-0.4,0-0.6,0c-2.5,0-4.9,0-7.4,0c-1.1,0-1.4-0.4-1.4-1.4c0-1.7,0-3.3,0-5
		c0-0.3-0.1-0.5-0.4-0.7c-3.3-1.9-6.7-3.8-10-5.8c-0.3-0.2-0.6-0.1-0.8,0c-3.5,2-7,4-10.5,6c-0.9,0.5-1.5,0.5-1.9-0.2
		c-0.4-0.6-0.1-1.2,0.8-1.7c3.7-2.2,7.5-4.3,11.2-6.5c0.5-0.3,1-0.3,1.5,0c3.8,2.2,7.6,4.4,11.4,6.5c0.6,0.3,0.8,0.8,0.8,1.4
		c0,1.4,0,2.9,0,4.3c0,0.2,0,0.4,0,0.7c0.3,0,0.5,0,0.7,0c2.4,0,4.8,0,7.3,0c1.2,0,1.5,0.4,1.5,1.5c0,2.2,0,4.4,0,6.7
		C62.9,47.4,62.9,47.6,62.9,47.8z M64.8,53c0-1.7-1.4-3.1-3-3.1c-1.7,0-3,1.4-3,3c0,1.7,1.3,3.1,3,3.1C63.4,56,64.8,54.6,64.8,53z"
		/>
	<path class="st4" d="M29.7,57.8c0.7-1.2,1.3-2.4,1.9-3.6c0.3-0.5,0.6-0.8,1.2-0.8c0.7,0.1,1.2,0.8,0.9,1.5c-0.9,1.7-1.8,3.3-2.7,5
		c-0.3,0.6-0.9,0.6-1.5,0.3c-1.2-0.7-2.4-1.4-3.5-2.1c-0.8-0.5-1.7-1-2.5-1.5c-0.3-0.2-0.4-0.2-0.7,0.1c-1.6,1.5-3.5,1.9-5.5,1
		c-2.1-0.9-3.1-2.5-3.2-4.7c-0.2-2.6,2-5,4.6-5.3c2.7-0.3,5.2,1.6,5.7,4.2c0.1,0.7,0,1.5,0,2.3c0,0.2,0.1,0.3,0.2,0.5
		c0,0,0.1,0,0.1,0.1C26.3,55.8,28,56.8,29.7,57.8z M22.2,53c0-1.7-1.3-3.1-3-3.1c-1.7,0-3,1.3-3.1,3c0,1.7,1.3,3.1,3,3.1
		C20.9,56,22.2,54.7,22.2,53z"/>
	<path class="st4" d="M51.2,23.3c-0.7,1.2-1.3,2.3-1.9,3.4c-0.4,0.6-0.8,0.8-1.4,0.7c-0.6-0.2-1-0.9-0.7-1.5
		c0.9-1.6,1.8-3.2,2.7-4.8c0.3-0.5,0.9-0.6,1.5-0.3c1.7,1,3.4,1.9,5.1,3c0.9,0.5,1.5,0.7,2.4,0c1.7-1.4,4.2-1.2,6,0.2
		c1.8,1.4,2.5,3.7,1.8,5.9c-0.7,2.1-2.7,3.5-4.8,3.5c-3.5,0-5.9-3-5.1-6.4c0.1-0.3,0.1-0.4-0.2-0.6c-1.7-1-3.4-1.9-5-2.9
		C51.4,23.4,51.4,23.4,51.2,23.3z M58.8,28.2c0,1.7,1.3,3,3,3c1.7,0,3-1.4,3-3c0-1.7-1.3-3.1-3-3C60.1,25.1,58.8,26.4,58.8,28.2z"/>
	<path class="st4" d="M44.4,61.8c1.8-1,3.5-2,5.3-3.1c-0.6-1-1.2-2.1-1.7-3.1c-0.2-0.3-0.3-0.6-0.5-0.9c-0.2-0.5,0-1.1,0.4-1.3
		c0.5-0.3,1.1-0.2,1.4,0.3c0.2,0.2,0.3,0.5,0.5,0.8c0.7,1.3,1.4,2.5,2.1,3.8c0.6,1,0.5,1.5-0.5,2c-1.8,1.1-3.6,2.1-5.5,3.2
		c-0.3,0.2-0.4,0.3-0.3,0.7c0.4,2.2-0.2,4-2,5.4c-1.7,1.3-3.6,1.4-5.5,0.4c-1.9-1.1-2.9-2.8-2.7-5c0.2-2.2,1.3-3.7,3.3-4.5
		c2-0.8,3.9-0.3,5.5,1.1C44.2,61.6,44.3,61.7,44.4,61.8z M40.5,62.3c-1.7,0-3,1.3-3,3c0,1.7,1.3,3.1,3,3.1c1.7,0,3-1.4,3-3.1
		C43.5,63.6,42.2,62.3,40.5,62.3z"/>
	<path class="st4" d="M31.7,22.2c0.6,1.1,1.2,2.1,1.7,3.1c0.1,0.2,0.2,0.4,0.3,0.6c0.2,0.5,0.1,1.1-0.4,1.4
		c-0.5,0.3-1.1,0.2-1.5-0.3c-0.1-0.1-0.1-0.2-0.2-0.3c-0.8-1.4-1.6-2.8-2.3-4.2c-0.4-0.8-0.3-1.3,0.5-1.8c1.8-1,3.5-2.1,5.3-3.1
		c0.3-0.2,0.4-0.3,0.3-0.7c-0.5-2.2,0.2-4,1.9-5.4c1.7-1.3,3.7-1.5,5.6-0.4c1.9,1,2.9,2.8,2.7,4.9c-0.1,2.1-1.2,3.7-3.2,4.5
		c-2,0.8-3.8,0.5-5.5-0.9c-0.3-0.3-0.5-0.3-0.9-0.1C34.7,20.4,33.2,21.3,31.7,22.2z M37.5,15.7c0,1.7,1.3,3.1,3,3.1
		c1.7,0,3-1.3,3.1-3c0-1.7-1.3-3.1-3-3.1C38.9,12.7,37.5,14,37.5,15.7z"/>
</g>
<g>
	<g>
		<defs>
			<path id="SVGID_1_" d="M39.6,31.1l-6.6,3.7c-0.6,0.3-1,1.1-1,1.7l0,7.5c0,0.6,0.5,1.4,1,1.7l4,2.2l8.6-4.7c1.5-0.8,2-2.7,1.2-4.1
				c-0.6-1-1.6-1.6-2.7-1.6c-0.5,0-1.1,0.1-1.5,0.4l-4,2.2l0,0l-0.4,0.2l0.7,1.2l-3-0.8l0.9-2.9l0.7,1.2l4.4-2.4
				C42.2,36.2,43,36,43,36c0.3-0.1,0.6-0.1,1-0.1c1.7,0,3.3,0.9,4.2,2.4c0.6,1.1,0.8,2.3,0.4,3.6c-0.3,1.2-1.2,2.2-2.3,2.8l-7.7,4.2
				l1,0.6c0.6,0.3,1.5,0.3,2,0l6.6-3.7c0.6-0.3,1-1.1,1-1.7l0-7.5c0-0.6-0.5-1.4-1-1.7l-4.1-2.3l-8.4,4.6c-1.5,0.8-2,2.7-1.2,4.1
				c0.6,1,1.6,1.6,2.7,1.6c0.5,0,1.1-0.1,1.5-0.4l4.4-2.4l-0.7-1.2l3,0.8l-0.9,2.9l-0.7-1.2l-4.4,2.4c0,0-0.1,0-0.1,0.1
				c0,0-0.6,0.3-1.3,0.4c-0.3,0.1-0.6,0.1-1,0.1c-1.7,0-3.3-0.9-4.2-2.4c-0.6-1.1-0.8-2.3-0.4-3.5c0.3-1.2,1.2-2.2,2.3-2.8l7.6-4.2
				l-0.8-0.5c-0.3-0.2-0.6-0.2-1-0.2C40.2,30.9,39.9,30.9,39.6,31.1"/>
		</defs>
		<use xlink:href="#SVGID_1_"  style="overflow:visible;fill:#FFFFFF;"/>
		<clipPath id="SVGID_2_">
			<use xlink:href="#SVGID_1_"  style="overflow:visible;"/>
		</clipPath>
		<rect x="31.9" y="30.9" class="st5" width="17.3" height="18.9"/>
	</g>
</g>
</svg>
