<?xml version="1.0" encoding="utf-8"?>
<!-- Generator: Adobe Illustrator 22.0.1, SVG Export Plug-In . SVG Version: 6.00 Build 0)  -->
<svg version="1.1" id="Layer_1" xmlns="http://www.w3.org/2000/svg" xmlns:xlink="http://www.w3.org/1999/xlink" x="0px" y="0px"
	 viewBox="0 0 81 81" style="enable-background:new 0 0 81 81;" xml:space="preserve">
<style type="text/css">
	.st0{fill:#64BBE1;}
	.st1{fill:#F6CC19;stroke:#FFFFFF;stroke-width:0.5;stroke-linecap:round;stroke-linejoin:round;stroke-miterlimit:10;}
	.st2{fill:none;stroke:#FFFFFF;stroke-width:0.5;stroke-linecap:round;stroke-linejoin:round;stroke-miterlimit:10;}
	.st3{fill:none;stroke:#FFFFFF;stroke-width:0.5;stroke-miterlimit:10;}
	.st4{fill:#FFFFFF;}
</style>
<circle class="st0" cx="40.5" cy="40.5" r="40.5"/>
<g>
	<g>
		<path class="st1" d="M62.4,22.9c-1.7-1.8-3.3-3.5-4.8-5.1c-1.3,0.9-2.2,1.6-3.2,2.3c-1.3-0.8-2.5-1.5-3.7-2.2
			c0.1-1.3,0.2-2.6,0.3-4c-2.4-0.6-4.5-1.2-6.7-1.7c-0.7,1.4-1.2,2.5-1.7,3.5c-1.5,0-2.9,0-4.4,0c-0.5-1.1-1-2.2-1.7-3.5
			c-2.3,0.6-4.5,1.3-6.7,1.9c0.2,1.5,0.3,2.7,0.4,3.9c-1.3,0.8-2.5,1.5-3.8,2.2c-1.1-0.7-2.1-1.5-3.2-2.3c-1.7,1.7-3.4,3.2-5,4.8
			c0.9,1.3,1.6,2.4,2.3,3.4c-0.8,1.3-1.4,2.4-2.2,3.7c-1.3-0.1-2.5-0.2-4-0.3c-0.6,2.3-1.1,4.5-1.7,6.7c1.4,0.7,2.5,1.2,3.5,1.7
			c0,1.6,0,3,0,4.4c-1.1,0.5-2.2,1-3.5,1.6c0.6,2.3,1.2,4.4,1.8,6.7c1.5-0.1,2.7-0.2,4-0.3c0.7,1.3,1.5,2.5,2.2,3.7
			c-0.8,1.1-1.5,2.1-2.2,3.1c1.6,1.8,3.2,3.4,4.7,5.1c1.4-1,2.4-1.6,3.4-2.3c1.3,0.8,2.5,1.5,3.7,2.2c-0.1,1.3-0.2,2.5-0.4,3.9
			c2.3,0.6,4.5,1.2,6.8,1.8c0.6-1.4,1.1-2.5,1.7-3.6c1.4,0,2.8,0,4.3,0c0.5,1.1,1,2.3,1.7,3.6c2.3-0.6,4.5-1.3,6.8-1.9
			c-0.2-1.5-0.3-2.7-0.4-3.9c1.3-0.7,2.5-1.4,3.8-2.1c1.1,0.7,2.1,1.4,3.3,2.2c1.7-1.6,3.3-3.2,5-4.8c-1-1.4-1.7-2.4-2.4-3.4
			c0.8-1.3,1.5-2.5,2.2-3.7c1.3,0.1,2.5,0.2,4,0.3c0.6-2.3,1.1-4.5,1.7-6.7c-1.4-0.7-2.4-1.1-3.5-1.6c0-1.5,0-3,0-4.4
			c1.1-0.5,2.2-1,3.5-1.6c-0.6-2.3-1.2-4.5-1.8-6.7c-1.5,0.1-2.7,0.2-4,0.3c-0.7-1.3-1.5-2.5-2.2-3.7C61,24.9,61.7,23.9,62.4,22.9z"
			/>
	</g>
	<g>
		<g>
			<path class="st2" d="M37.2,20.4c-5.2,0.8-9.6,3.5-12.6,7.4"/>
			<path class="st2" d="M37.2,18.4c-6,0.8-11.2,4-14.5,8.7"/>
			<path class="st2" d="M43.1,20.4c-0.8-0.1-1-0.2-1.8-0.2"/>
			<path class="st2" d="M48,21.7c-0.3-0.1-0.7-0.3-1-0.4"/>
			<path class="st2" d="M59.2,34.5c-1.1-4-3.4-7.4-6.6-10"/>
			<path class="st2" d="M51.6,56c5.1-3.6,8.5-9.5,8.4-16.2c0-0.3,0-0.6,0-0.9"/>
			<path class="st2" d="M35.2,59c1.6,0.4,3.3,0.7,5.1,0.7c2.4,0,4.8-0.5,7-1.3"/>
			<path class="st2" d="M20.6,42.3c0.8,6.4,4.7,11.9,10.2,14.9"/>
			<path class="st2" d="M22,32.2c-0.8,1.8-1.3,3.8-1.5,5.9"/>
			<path class="st2" d="M43,18.3c-0.6-0.1-1.1-0.1-1.7-0.1"/>
			<path class="st2" d="M50.8,20.8c-1-0.5-1.8-0.8-2.9-1.2"/>
			<path class="st2" d="M61.2,34.3c-1-3.7-2.9-7-5.5-9.7"/>
			<path class="st2" d="M51.7,58.3c6.2-3.9,10.4-10.8,10.3-18.5c0-0.3,0-0.6,0-0.9"/>
			<path class="st2" d="M35.2,61c1.6,0.4,3.4,0.6,5.1,0.6c2.5,0,4.8-0.4,7.1-1.2"/>
			<path class="st2" d="M18.6,42.5c0.8,7.4,5.5,13.7,12,16.9"/>
			<path class="st2" d="M19.9,32.1c-0.7,1.9-1.2,3.9-1.4,6"/>
			<line class="st2" x1="50.6" y1="47.7" x2="47.1" y2="47.7"/>
			<line class="st2" x1="52.9" y1="47.7" x2="51.9" y2="47.7"/>
			<line class="st2" x1="44.7" y1="30" x2="48.2" y2="30"/>
			<line class="st2" x1="42.4" y1="30" x2="43.4" y2="30"/>
			<line class="st2" x1="45.2" y1="54.5" x2="45.2" y2="48.3"/>
			<line class="st2" x1="33.7" y1="47.9" x2="33.7" y2="51.7"/>
			<line class="st2" x1="29.6" y1="33.6" x2="29.6" y2="30.1"/>
			<line class="st2" x1="46.6" y1="31.8" x2="37.2" y2="31.8"/>
			<line class="st2" x1="48.9" y1="31.8" x2="47.9" y2="31.8"/>
			<line class="st2" x1="31.1" y1="32.3" x2="31.1" y2="26.2"/>
			<circle class="st3" cx="28.3" cy="47.9" r="0.9"/>
			<circle class="st3" cx="56.8" cy="45.7" r="0.9"/>
			<circle class="st3" cx="34.6" cy="29.4" r="0.9"/>
			<line class="st2" x1="36.1" y1="54.3" x2="36.1" y2="50.4"/>
		</g>
	</g>
	<g>
		<path class="st4" d="M23.3,45.2l1.8-11h2.1l2.7,6.6l2.7-6.6h2.1l1.8,11H34l-0.9-6.6l-2.8,6.6h-0.9l-2.8-6.6l-0.9,6.6H23.3z"/>
		<path class="st4" d="M44.6,36.3H41v2.1h3.3v2.1H41v4.6h-2.5v-11h6.1V36.3z"/>
		<path class="st4" d="M51.7,39.2h5.5v0.1c0,1.3-0.5,3.4-1.7,4.6c-1.2,1.3-2.6,1.5-3.9,1.5c-1.3,0-2.7-0.2-4-1.5
			c-0.6-0.7-1.6-2-1.6-4.2c0-1.8,0.7-3.2,1.6-4.2c1.4-1.4,3-1.6,4.3-1.6c0.9,0,2.1,0.1,3.1,0.8c0.7,0.5,1.4,1.3,1.8,2L54.4,38
			c-0.2-0.4-0.5-0.9-1-1.2c-0.5-0.4-1.1-0.5-1.7-0.5c-1,0-1.7,0.3-2.3,0.9c-0.6,0.6-0.9,1.6-0.9,2.6c0,1.3,0.5,2.1,0.9,2.5
			c0.6,0.7,1.4,0.9,2.2,0.9c1.1,0,1.7-0.4,1.9-0.6c0.1-0.1,0.6-0.5,0.8-1.3h-2.7V39.2z"/>
	</g>
	<g>
		<circle class="st4" cx="27.4" cy="30.7" r="0.6"/>
		<circle class="st4" cx="35.6" cy="25" r="0.6"/>
		<circle class="st4" cx="46.2" cy="25.4" r="0.6"/>
		<circle class="st4" cx="51.7" cy="28.8" r="0.6"/>
		<circle class="st4" cx="54.2" cy="49.1" r="0.6"/>
		<circle class="st4" cx="47.1" cy="54.7" r="0.6"/>
		<circle class="st4" cx="31.9" cy="54" r="0.6"/>
	</g>
</g>
</svg>
